<svg width="896" height="1216" viewBox="0 0 896 1216" fill="none" xmlns="http://www.w3.org/2000/svg">
<g clip-path="url(#clip0_4614_1902)">
<path d="M821.947 1200.76L880.795 1141.79C890.531 1132.04 896 1118.8 896 1105.01L896 1017.43C896 994.692 880.865 974.75 858.991 968.682L820.282 957.943C800.888 952.56 787.453 934.875 787.453 914.705L787.453 345.674C787.453 325.504 800.879 307.819 820.282 302.436L858.991 291.697C880.856 285.629 896 265.688 896 242.954L896 30.8917C896 13.8302 882.197 3.85621e-05 865.169 3.78178e-05L36.3344 1.58822e-06C16.2655 7.10986e-07 6.03228e-05 16.2976 5.94438e-05 36.4062L5.17948e-05 211.395C5.0788e-05 234.427 14.4427 254.966 36.0802 262.72L39.6996 264.019C54.5103 269.323 64.387 283.382 64.3869 299.143L64.3869 895.642C64.3869 911.404 54.5015 925.462 39.6996 930.766L36.0802 932.065C14.4427 939.819 1.90562e-05 960.367 1.80494e-05 983.399L1.35083e-05 1087.29C1.28558e-05 1102.22 6.80065 1116.33 18.4739 1125.61L118.801 1205.39C127.433 1212.26 138.133 1216 149.158 1216L785.236 1216C799.003 1216 812.21 1210.52 821.947 1200.76L821.947 1200.76ZM813.91 57.1207C813.91 41.6397 826.434 29.0916 841.884 29.0916C857.335 29.0916 869.858 41.6397 869.858 57.1207C869.858 72.6016 857.335 85.1497 841.884 85.1497C826.434 85.1497 813.91 72.6016 813.91 57.1207ZM813.91 224.838C813.91 209.357 826.434 196.809 841.884 196.809C857.335 196.809 869.858 209.357 869.858 224.838C869.858 240.319 857.335 252.867 841.884 252.867C826.434 252.867 813.91 240.319 813.91 224.838ZM813.91 1052.23C813.91 1036.74 826.434 1024.2 841.884 1024.2C857.335 1024.2 869.858 1036.74 869.858 1052.23C869.858 1067.71 857.335 1080.25 841.884 1080.25C826.434 1080.25 813.91 1067.71 813.91 1052.23Z" fill="#DDDDDD"/>
<path d="M814.007 59.4919C815.281 74.8888 828.795 86.3376 844.192 85.0636C859.589 83.7897 871.038 70.2753 869.764 54.8785C868.49 39.4816 854.975 28.0328 839.579 29.3068C824.182 30.5807 812.733 44.0951 814.007 59.4919Z" fill="black"/>
<path d="M25.3077 59.4919C26.5816 74.8888 40.096 86.3376 55.4928 85.0636C70.8896 83.7897 82.3385 70.2753 81.0645 54.8785C79.7906 39.4816 66.2762 28.0328 50.8794 29.3068C35.4825 30.5807 24.0337 44.0951 25.3077 59.4919Z" fill="black"/>
<path d="M813.987 1052.45C815.261 1067.85 828.776 1079.3 844.172 1078.02C859.569 1076.75 871.018 1063.23 869.744 1047.84C868.47 1032.44 854.956 1020.99 839.559 1022.27C824.162 1023.54 812.713 1037.05 813.987 1052.45Z" fill="black"/>
<rect x="134.5" y="430.5" width="588" height="700" rx="23.5" stroke="black"/>
<path d="M722 586H134V587H722V586Z" fill="black"/>
<path d="M722 695H134V696H722V695Z" fill="black"/>
<path d="M722 804H134V805H722V804Z" fill="black"/>
<path d="M722 913H134V914H722V913Z" fill="black"/>
<path d="M722 1022H134V1023H722V1022Z" fill="black"/>
<path d="M721 334.995L721 334.057C721 332.952 720.105 332.057 719 332.057L682 332.057C680.895 332.057 680 332.952 680 334.057L680 334.995C680 336.1 680.895 336.995 682 336.995L719 336.995C720.105 336.995 721 336.1 721 334.995Z" fill="black"/>
<path d="M721 165.917L721 103.994C721 102.89 720.105 101.994 719 101.994L682 101.994C680.895 101.994 680 102.89 680 103.994L680 165.917C680 167.022 680.895 167.917 682 167.917L719 167.917C720.105 167.917 721 167.022 721 165.917Z" fill="black"/>
<path d="M720.893 321.006L720.893 313.9C720.893 312.796 719.997 311.9 718.893 311.9L682.005 311.9C680.901 311.9 680.005 312.796 680.005 313.9L680.005 321.006C680.005 322.11 680.901 323.006 682.005 323.006L718.893 323.006C719.997 323.006 720.893 322.11 720.893 321.006Z" fill="black"/>
<path d="M720.893 295.317L720.893 281.814C720.893 280.71 719.997 279.814 718.893 279.814L682.005 279.814C680.901 279.814 680.005 280.71 680.005 281.814L680.005 295.317C680.005 296.421 680.901 297.317 682.005 297.317L718.893 297.317C719.997 297.317 720.893 296.421 720.893 295.317Z" fill="black"/>
<path d="M720.893 256.012L720.893 244.787C720.893 243.683 719.997 242.787 718.893 242.787L682.005 242.787C680.901 242.787 680.005 243.683 680.005 244.787L680.005 256.012C680.005 257.117 680.901 258.012 682.005 258.012L718.893 258.012C719.997 258.012 720.893 257.117 720.893 256.012Z" fill="black"/>
<path d="M720.893 188.127L720.893 176.902C720.893 175.798 719.997 174.902 718.893 174.902L682.005 174.902C680.901 174.902 680.005 175.798 680.005 176.902L680.005 188.127C680.005 189.232 680.901 190.127 682.005 190.127L718.893 190.127C719.997 190.127 720.893 189.232 720.893 188.127Z" fill="black"/>
<path d="M720.893 235.432L720.893 231.824C720.893 230.72 719.997 229.824 718.893 229.824L682.005 229.824C680.901 229.824 680.005 230.72 680.005 231.824L680.005 235.432C680.005 236.537 680.901 237.432 682.005 237.432L718.893 237.432C719.997 237.432 720.893 236.537 720.893 235.432Z" fill="black"/>
<path d="M720.893 211.576L720.893 209.818C720.893 208.714 719.997 207.818 718.893 207.818L682.005 207.818C680.901 207.818 680.005 208.714 680.005 209.818L680.005 211.576C680.005 212.68 680.901 213.576 682.005 213.576L718.893 213.576C719.997 213.576 720.893 212.68 720.893 211.576Z" fill="black"/>
<path d="M720.893 199.856L720.893 199.361C720.893 198.257 719.997 197.361 718.893 197.361L682.005 197.361C680.901 197.361 680.005 198.257 680.005 199.361L680.005 199.856C680.005 200.961 680.901 201.856 682.005 201.856L718.893 201.856C719.997 201.856 720.893 200.961 720.893 199.856Z" fill="black"/>
<path d="M680.956 218.103L719.942 218.103C720.467 218.103 720.893 217.677 720.893 217.152C720.893 216.627 720.467 216.201 719.942 216.201L680.956 216.201C680.431 216.201 680.005 216.627 680.005 217.152C680.005 217.677 680.431 218.103 680.956 218.103Z" fill="black"/>
<path d="M681.856 276.93L719.042 276.93C720.064 276.93 720.893 276.102 720.893 275.079C720.893 274.057 720.064 273.229 719.042 273.229L681.856 273.229C680.834 273.229 680.005 274.057 680.005 275.079C680.005 276.102 680.834 276.93 681.856 276.93Z" fill="black"/>
<path d="M681.856 265.825L719.042 265.825C720.064 265.825 720.893 264.996 720.893 263.974C720.893 262.952 720.064 262.123 719.042 262.123L681.856 262.123C680.834 262.123 680.005 262.952 680.005 263.974C680.005 264.996 680.834 265.825 681.856 265.825Z" fill="black"/>
<path d="M720.893 304.965L720.893 303.412C720.893 302.308 719.997 301.412 718.893 301.412L682.005 301.412C680.901 301.412 680.005 302.308 680.005 303.412L680.005 304.965C680.005 306.069 680.901 306.965 682.005 306.965L718.893 306.965C719.997 306.965 720.893 306.069 720.893 304.965Z" fill="black"/>
<rect x="407" y="102" width="235" height="235" fill="#D1D1D1"/>
<path d="M134 102H369V337H134V102Z" fill="#D1D1D1"/>
<path d="M165.659 365.994H136.391C135.286 365.994 134.391 366.89 134.391 367.994V397.262C134.391 398.367 135.286 399.262 136.391 399.262H165.659C166.763 399.262 167.659 398.367 167.659 397.262V367.994C167.659 366.89 166.763 365.994 165.659 365.994Z" fill="black"/>
<path d="M207.979 397.484H180.045V399.266H207.979V397.484Z" fill="black"/>
<path d="M344.002 399.729H255.393V400.256H344.002V399.729Z" fill="black"/>
<path d="M138.48 66.12V45.56H136.12C135.853 45.56 135.627 45.48 135.44 45.32C135.28 45.1334 135.2 44.9067 135.2 44.64C135.2 44.3734 135.28 44.1467 135.44 43.96C135.627 43.7734 135.853 43.68 136.12 43.68H143C143.267 43.68 143.48 43.7734 143.64 43.96C143.827 44.1467 143.92 44.3734 143.92 44.64C143.92 44.9067 143.827 45.1334 143.64 45.32C143.48 45.48 143.267 45.56 143 45.56H140.64V66.12H143C143.267 66.12 143.48 66.2134 143.64 66.4C143.827 66.56 143.92 66.7734 143.92 67.04C143.92 67.3067 143.827 67.5334 143.64 67.72C143.48 67.9067 143.267 68 143 68H136.12C135.853 68 135.627 67.9067 135.44 67.72C135.28 67.5334 135.2 67.3067 135.2 67.04C135.2 66.7734 135.28 66.56 135.44 66.4C135.627 66.2134 135.853 66.12 136.12 66.12H138.48ZM151.373 67.48C151.373 67.7467 151.266 67.96 151.053 68.12C150.839 68.3067 150.586 68.4 150.293 68.4C149.999 68.4 149.746 68.3067 149.533 68.12C149.319 67.96 149.213 67.7467 149.213 67.48V45.56H147.013C146.719 45.56 146.466 45.4667 146.253 45.28C146.039 45.0934 145.933 44.8667 145.933 44.6C145.933 44.3334 146.026 44.12 146.213 43.96C146.426 43.7734 146.693 43.68 147.013 43.68H150.133C150.559 43.68 150.893 43.8134 151.133 44.08L166.813 64.24V45.56H164.453C164.186 45.56 163.959 45.48 163.773 45.32C163.613 45.1334 163.533 44.9067 163.533 44.64C163.533 44.3734 163.613 44.1467 163.773 43.96C163.959 43.7734 164.186 43.68 164.453 43.68H171.333C171.599 43.68 171.813 43.7734 171.973 43.96C172.159 44.1467 172.253 44.3734 172.253 44.64C172.253 44.9067 172.159 45.1334 171.973 45.32C171.813 45.48 171.599 45.56 171.333 45.56H168.973V67.36C168.973 68.0534 168.626 68.4 167.933 68.4C167.559 68.4 167.239 68.2134 166.973 67.84L151.373 47.76V67.48ZM179.303 45.56V66.12H185.423C188.516 66.12 190.929 65.2267 192.663 63.44C194.423 61.6267 195.303 59.12 195.303 55.92C195.303 52.6934 194.409 50.16 192.623 48.32C190.836 46.48 188.436 45.56 185.423 45.56H179.303ZM177.143 45.56H174.743C174.476 45.56 174.249 45.48 174.063 45.32C173.903 45.1334 173.823 44.9067 173.823 44.64C173.823 44.3734 173.903 44.1467 174.063 43.96C174.249 43.7734 174.476 43.68 174.743 43.68H185.423C189.049 43.68 191.956 44.7867 194.143 47C196.356 49.1867 197.463 52.1467 197.463 55.88C197.463 59.6134 196.383 62.5734 194.223 64.76C192.063 66.92 189.129 68 185.423 68H178.183C177.489 68 177.143 67.6934 177.143 67.08V45.56ZM201.072 43.68H219.832C220.525 43.68 220.872 44 220.872 44.64V47.92C220.872 48.1867 220.765 48.4134 220.552 48.6C220.338 48.76 220.085 48.84 219.792 48.84C219.498 48.84 219.245 48.76 219.032 48.6C218.818 48.4134 218.712 48.1867 218.712 47.92V45.56H205.592V54.84H216.872V53.36C216.872 53.0934 216.965 52.88 217.152 52.72C217.365 52.5334 217.618 52.44 217.912 52.44C218.205 52.44 218.445 52.5334 218.632 52.72C218.845 52.88 218.952 53.0934 218.952 53.36V58.24C218.952 58.5067 218.845 58.7334 218.632 58.92C218.445 59.08 218.205 59.16 217.912 59.16C217.618 59.16 217.365 59.08 217.152 58.92C216.965 58.7334 216.872 58.5067 216.872 58.24V56.72H205.592V66.12H219.792C220.112 66.12 220.365 66.2134 220.552 66.4C220.765 66.56 220.872 66.7734 220.872 67.04C220.872 67.3067 220.765 67.5334 220.552 67.72C220.338 67.9067 220.085 68 219.792 68H204.432C203.765 68 203.432 67.7067 203.432 67.12V45.56H201.072C200.805 45.56 200.578 45.48 200.392 45.32C200.232 45.1334 200.152 44.9067 200.152 44.64C200.152 44.3734 200.232 44.1467 200.392 43.96C200.578 43.7734 200.805 43.68 201.072 43.68ZM224.955 68.08C224.768 68.32 224.555 68.44 224.315 68.44C224.075 68.44 223.808 68.32 223.515 68.08C223.248 67.8667 223.115 67.6534 223.115 67.44C223.115 67.2267 223.195 67.0267 223.355 66.84L233.275 55.64L223.675 44.84C223.515 44.6534 223.435 44.4534 223.435 44.24C223.435 44.0267 223.568 43.8134 223.835 43.6C224.128 43.36 224.395 43.24 224.635 43.24C224.875 43.24 225.088 43.36 225.275 43.6L234.635 54.24L243.995 43.6C244.181 43.36 244.395 43.24 244.635 43.24C244.875 43.24 245.128 43.36 245.395 43.6C245.688 43.8134 245.835 44.0267 245.835 44.24C245.835 44.4534 245.755 44.6534 245.595 44.84L235.995 55.68L245.955 66.84C246.115 67.0267 246.195 67.2267 246.195 67.44C246.195 67.6534 246.048 67.8667 245.755 68.08C245.488 68.32 245.235 68.44 244.995 68.44C244.755 68.44 244.541 68.32 244.355 68.08L234.675 57.08L224.955 68.08ZM262.935 70.84H252.015C251.749 70.84 251.522 70.7467 251.335 70.56C251.175 70.4 251.095 70.1867 251.095 69.92C251.095 69.6534 251.175 69.4267 251.335 69.24C251.522 69.0534 251.749 68.96 252.015 68.96H262.935C263.202 68.96 263.415 69.0534 263.575 69.24C263.762 69.4267 263.855 69.6534 263.855 69.92C263.855 70.1867 263.762 70.4 263.575 70.56C263.415 70.7467 263.202 70.84 262.935 70.84ZM278.898 67.48V45.56H270.978V47.92C270.978 48.1867 270.871 48.4134 270.658 48.6C270.444 48.76 270.191 48.84 269.898 48.84C269.604 48.84 269.351 48.76 269.138 48.6C268.924 48.4134 268.818 48.1867 268.818 47.92V44.64C268.818 44.3734 268.924 44.1467 269.138 43.96C269.351 43.7734 269.591 43.68 269.858 43.68H290.058C290.351 43.68 290.604 43.7734 290.818 43.96C291.031 44.1467 291.138 44.3734 291.138 44.64V47.92C291.138 48.1867 291.031 48.4134 290.818 48.6C290.604 48.76 290.351 48.84 290.058 48.84C289.764 48.84 289.511 48.76 289.298 48.6C289.084 48.4134 288.978 48.1867 288.978 47.92V45.56H281.058V67.48C281.058 67.7467 280.951 67.96 280.738 68.12C280.524 68.3067 280.271 68.4 279.978 68.4C279.684 68.4 279.431 68.3067 279.218 68.12C279.004 67.96 278.898 67.7467 278.898 67.48ZM302.069 46.52L296.269 58.52H307.909L302.069 46.52ZM298.669 43.68H302.229C302.655 43.68 302.949 43.84 303.109 44.16L314.429 67.04C314.482 67.1467 314.509 67.2667 314.509 67.4C314.509 67.8534 314.295 68.16 313.869 68.32C313.709 68.3734 313.562 68.4 313.429 68.4C312.975 68.4 312.669 68.2267 312.509 67.88L308.789 60.36H295.389L291.669 67.88C291.429 68.4134 290.975 68.56 290.309 68.32C289.882 68.16 289.669 67.8667 289.669 67.44C289.669 67.3334 289.695 67.2134 289.749 67.08L300.389 45.56H298.669C298.402 45.56 298.175 45.48 297.989 45.32C297.829 45.1334 297.749 44.9067 297.749 44.64C297.749 44.3734 297.829 44.1467 297.989 43.96C298.175 43.7734 298.402 43.68 298.669 43.68ZM334.992 67.48V65.88C332.938 67.56 330.565 68.4 327.872 68.4C324.405 68.4 321.592 67.2 319.432 64.8C317.272 62.3734 316.192 59.3334 316.192 55.68C316.192 52 317.298 49.0134 319.512 46.72C321.752 44.4267 324.485 43.28 327.712 43.28C330.938 43.28 333.712 43.9334 336.032 45.24C336.458 45.4534 336.672 45.7334 336.672 46.08V49.52C336.672 49.7867 336.565 50.0134 336.352 50.2C336.138 50.36 335.885 50.44 335.592 50.44C335.298 50.44 335.045 50.36 334.832 50.2C334.618 50.0134 334.512 49.7867 334.512 49.52V46.6C332.512 45.64 330.338 45.16 327.992 45.16C325.112 45.16 322.778 46.1467 320.992 48.12C319.232 50.0667 318.352 52.6134 318.352 55.76C318.352 58.9067 319.245 61.4934 321.032 63.52C322.818 65.52 325.085 66.52 327.832 66.52C330.578 66.52 332.965 65.6534 334.992 63.92V57.92H328.992C328.725 57.92 328.498 57.84 328.312 57.68C328.152 57.4934 328.072 57.2667 328.072 57C328.072 56.7334 328.152 56.5067 328.312 56.32C328.498 56.1334 328.725 56.04 328.992 56.04H336.112C336.805 56.04 337.152 56.3467 337.152 56.96V67.48C337.152 67.7467 337.045 67.96 336.832 68.12C336.618 68.3067 336.365 68.4 336.072 68.4C335.778 68.4 335.525 68.3067 335.312 68.12C335.098 67.96 334.992 67.7467 334.992 67.48ZM357.257 66.56C358.83 66.56 360.044 66.0134 360.897 64.92C361.75 63.8 362.177 62.3334 362.177 60.52C362.177 58.68 361.75 57.2134 360.897 56.12C360.044 55.0267 358.83 54.48 357.257 54.48C355.684 54.48 354.47 55.0267 353.617 56.12C352.764 57.2134 352.337 58.68 352.337 60.52C352.337 62.3334 352.764 63.8 353.617 64.92C354.47 66.0134 355.684 66.56 357.257 66.56ZM352.057 66.2C350.83 64.7334 350.217 62.8267 350.217 60.48C350.217 58.1334 350.83 56.24 352.057 54.8C353.31 53.36 355.044 52.64 357.257 52.64C359.497 52.64 361.23 53.36 362.457 54.8C363.71 56.24 364.337 58.1467 364.337 60.52C364.337 62.8667 363.71 64.7734 362.457 66.24C361.23 67.68 359.497 68.4 357.257 68.4C355.044 68.4 353.31 67.6667 352.057 66.2ZM375.265 66.56C376.838 66.56 378.051 66.0134 378.905 64.92C379.758 63.8 380.185 62.3334 380.185 60.52C380.185 58.68 379.758 57.2134 378.905 56.12C378.051 55.0267 376.838 54.48 375.265 54.48C373.691 54.48 372.478 55.0267 371.625 56.12C370.771 57.2134 370.345 58.68 370.345 60.52C370.345 62.3334 370.771 63.8 371.625 64.92C372.478 66.0134 373.691 66.56 375.265 66.56ZM370.065 66.2C368.838 64.7334 368.225 62.8267 368.225 60.48C368.225 58.1334 368.838 56.24 370.065 54.8C371.318 53.36 373.051 52.64 375.265 52.64C377.505 52.64 379.238 53.36 380.465 54.8C381.718 56.24 382.345 58.1467 382.345 60.52C382.345 62.8667 381.718 64.7734 380.465 66.24C379.238 67.68 377.505 68.4 375.265 68.4C373.051 68.4 371.318 67.6667 370.065 66.2ZM393.273 66.56C394.846 66.56 396.059 66.0134 396.913 64.92C397.766 63.8 398.193 62.3334 398.193 60.52C398.193 58.68 397.766 57.2134 396.913 56.12C396.059 55.0267 394.846 54.48 393.273 54.48C391.699 54.48 390.486 55.0267 389.633 56.12C388.779 57.2134 388.353 58.68 388.353 60.52C388.353 62.3334 388.779 63.8 389.633 64.92C390.486 66.0134 391.699 66.56 393.273 66.56ZM388.073 66.2C386.846 64.7334 386.233 62.8267 386.233 60.48C386.233 58.1334 386.846 56.24 388.073 54.8C389.326 53.36 391.059 52.64 393.273 52.64C395.513 52.64 397.246 53.36 398.473 54.8C399.726 56.24 400.353 58.1467 400.353 60.52C400.353 62.8667 399.726 64.7734 398.473 66.24C397.246 67.68 395.513 68.4 393.273 68.4C391.059 68.4 389.326 67.6667 388.073 66.2ZM408.84 52.64C409.534 52.64 409.88 52.92 409.88 53.48V66.12H412.52C412.787 66.12 413 66.2134 413.16 66.4C413.347 66.5867 413.44 66.8134 413.44 67.08C413.44 67.3467 413.347 67.5734 413.16 67.76C413 67.92 412.787 68 412.52 68H405.08C404.814 68 404.587 67.92 404.4 67.76C404.24 67.5734 404.16 67.3467 404.16 67.08C404.16 66.8134 404.24 66.5867 404.4 66.4C404.587 66.2134 404.814 66.12 405.08 66.12H407.72V56C406.734 56.9334 405.92 57.4 405.28 57.4C405.014 57.4 404.787 57.32 404.6 57.16C404.44 57 404.36 56.7467 404.36 56.4C404.36 56.0534 404.547 55.8 404.92 55.64C406.094 55.1334 407.08 54.3067 407.88 53.16C408.147 52.8134 408.467 52.64 408.84 52.64ZM423.351 66.56C424.924 66.56 426.137 66.0134 426.991 64.92C427.844 63.8 428.271 62.3334 428.271 60.52C428.271 58.68 427.844 57.2134 426.991 56.12C426.137 55.0267 424.924 54.48 423.351 54.48C421.777 54.48 420.564 55.0267 419.711 56.12C418.857 57.2134 418.431 58.68 418.431 60.52C418.431 62.3334 418.857 63.8 419.711 64.92C420.564 66.0134 421.777 66.56 423.351 66.56ZM418.151 66.2C416.924 64.7334 416.311 62.8267 416.311 60.48C416.311 58.1334 416.924 56.24 418.151 54.8C419.404 53.36 421.137 52.64 423.351 52.64C425.591 52.64 427.324 53.36 428.551 54.8C429.804 56.24 430.431 58.1467 430.431 60.52C430.431 62.8667 429.804 64.7734 428.551 66.24C427.324 67.68 425.591 68.4 423.351 68.4C421.137 68.4 419.404 67.6667 418.151 66.2ZM441.358 66.56C442.932 66.56 444.145 66.0134 444.998 64.92C445.852 63.8 446.278 62.3334 446.278 60.52C446.278 58.68 445.852 57.2134 444.998 56.12C444.145 55.0267 442.932 54.48 441.358 54.48C439.785 54.48 438.572 55.0267 437.718 56.12C436.865 57.2134 436.438 58.68 436.438 60.52C436.438 62.3334 436.865 63.8 437.718 64.92C438.572 66.0134 439.785 66.56 441.358 66.56ZM436.158 66.2C434.932 64.7334 434.318 62.8267 434.318 60.48C434.318 58.1334 434.932 56.24 436.158 54.8C437.412 53.36 439.145 52.64 441.358 52.64C443.598 52.64 445.332 53.36 446.558 54.8C447.812 56.24 448.438 58.1467 448.438 60.52C448.438 62.8667 447.812 64.7734 446.558 66.24C445.332 67.68 443.598 68.4 441.358 68.4C439.145 68.4 437.412 67.6667 436.158 66.2ZM456.926 52.64C457.62 52.64 457.966 52.92 457.966 53.48V66.12H460.606C460.873 66.12 461.086 66.2134 461.246 66.4C461.433 66.5867 461.526 66.8134 461.526 67.08C461.526 67.3467 461.433 67.5734 461.246 67.76C461.086 67.92 460.873 68 460.606 68H453.166C452.9 68 452.673 67.92 452.486 67.76C452.326 67.5734 452.246 67.3467 452.246 67.08C452.246 66.8134 452.326 66.5867 452.486 66.4C452.673 66.2134 452.9 66.12 453.166 66.12H455.806V56C454.82 56.9334 454.006 57.4 453.366 57.4C453.1 57.4 452.873 57.32 452.686 57.16C452.526 57 452.446 56.7467 452.446 56.4C452.446 56.0534 452.633 55.8 453.006 55.64C454.18 55.1334 455.166 54.3067 455.966 53.16C456.233 52.8134 456.553 52.64 456.926 52.64ZM471.437 66.56C473.01 66.56 474.223 66.0134 475.077 64.92C475.93 63.8 476.357 62.3334 476.357 60.52C476.357 58.68 475.93 57.2134 475.077 56.12C474.223 55.0267 473.01 54.48 471.437 54.48C469.863 54.48 468.65 55.0267 467.797 56.12C466.943 57.2134 466.517 58.68 466.517 60.52C466.517 62.3334 466.943 63.8 467.797 64.92C468.65 66.0134 469.863 66.56 471.437 66.56ZM466.237 66.2C465.01 64.7334 464.397 62.8267 464.397 60.48C464.397 58.1334 465.01 56.24 466.237 54.8C467.49 53.36 469.223 52.64 471.437 52.64C473.677 52.64 475.41 53.36 476.637 54.8C477.89 56.24 478.517 58.1467 478.517 60.52C478.517 62.8667 477.89 64.7734 476.637 66.24C475.41 67.68 473.677 68.4 471.437 68.4C469.223 68.4 467.49 67.6667 466.237 66.2ZM487.004 52.64C487.698 52.64 488.044 52.92 488.044 53.48V66.12H490.684C490.951 66.12 491.164 66.2134 491.324 66.4C491.511 66.5867 491.604 66.8134 491.604 67.08C491.604 67.3467 491.511 67.5734 491.324 67.76C491.164 67.92 490.951 68 490.684 68H483.244C482.978 68 482.751 67.92 482.564 67.76C482.404 67.5734 482.324 67.3467 482.324 67.08C482.324 66.8134 482.404 66.5867 482.564 66.4C482.751 66.2134 482.978 66.12 483.244 66.12H485.884V56C484.898 56.9334 484.084 57.4 483.444 57.4C483.178 57.4 482.951 57.32 482.764 57.16C482.604 57 482.524 56.7467 482.524 56.4C482.524 56.0534 482.711 55.8 483.084 55.64C484.258 55.1334 485.244 54.3067 486.044 53.16C486.311 52.8134 486.631 52.64 487.004 52.64Z" fill="black"/>
</g>
<defs>
<clipPath id="clip0_4614_1902">
<rect width="1216" height="896" fill="white" transform="translate(896 3.91654e-05) rotate(90)"/>
</clipPath>
</defs>
</svg>
