<svg width="240" height="240" viewBox="0 0 240 240" fill="none" xmlns="http://www.w3.org/2000/svg">
<path d="M2.0749 36.4283H0V23.085L23.5128 0H36.8461V2.03715H24.3718L2.0749 23.9283V36.4283Z" fill="white"/>
<path d="M92.5291 4.60144L89.0889 1.22384H23.9453V0.816406H89.2632L92.8238 4.31216L92.5291 4.60144Z" fill="white"/>
<path d="M1.24701 23.5078H0.832031V54.3013H1.24701V23.5078Z" fill="white"/>
<path d="M240 36.4283H237.926V23.9283L215.629 2.03715H203.154V0H216.488L240 23.085V36.4283Z" fill="white"/>
<path d="M147.472 4.60144L147.178 4.31216L150.738 0.816406H216.056V1.22384H150.913L147.472 4.60144Z" fill="white"/>
<path d="M239.169 23.5078H238.754V54.3013H239.169V23.5078Z" fill="white"/>
<path d="M36.8461 240.001H23.5128L0 216.916V203.572H2.0749V216.072L24.3718 237.963H36.8461V240.001Z" fill="white"/>
<path d="M89.2632 239.185H23.9453V238.778H89.0889L92.5291 235.4L92.8238 235.69L89.2632 239.185Z" fill="white"/>
<path d="M1.24701 185.697H0.832031V216.491H1.24701V185.697Z" fill="white"/>
<path d="M216.488 240.001H203.154V237.963H215.629L237.926 216.072V203.572H240V216.916L216.488 240.001Z" fill="white"/>
<path d="M216.056 239.185H150.738L147.178 235.69L147.472 235.4L150.913 238.778H216.056V239.185Z" fill="white"/>
<path d="M239.169 185.697H238.754V216.491H239.169V185.697Z" fill="white"/>
<path d="M120 5.47724H140.516L144.322 1.74112L142.857 0.298828L139.657 3.44009H120H100.342L97.1426 0.298828L95.6777 1.74112L99.4831 5.47724H120Z" fill="white"/>
<path d="M120 234.523H99.4831L95.6777 238.26L97.1426 239.702L100.342 236.561H120H139.657L142.857 239.702L144.322 238.26L140.516 234.523H120Z" fill="white"/>
</svg>
