<svg width="896" height="1216" viewBox="0 0 896 1216" fill="none" xmlns="http://www.w3.org/2000/svg">
<g clip-path="url(#clip0_4593_1328)">
<rect width="896" height="1216" fill="#1A1A1A"/>
<g opacity="0.1">
<path d="M448.399 1160H194.884L143 1211.88V1216.63H289.127L300.095 1205.66H448.399H596.703L607.671 1216.63H753.798V1211.88L701.914 1160H448.399Z" fill="white"/>
</g>
<g opacity="0.1">
<path d="M607.272 9.4873L596.304 20.4554H448.001H299.697L288.729 9.4873H142.602V14.2308L194.485 66.1145H448.001H701.516L753.399 14.2308V9.4873H607.272Z" fill="white"/>
</g>
<g opacity="0.1">
<path d="M42.5751 197.943H9.48633V320.39L24.6076 335.506V380.39V425.274L9.48633 440.39V562.837H42.5751L139.786 465.626V380.39V295.154L42.5751 197.943Z" fill="white"/>
</g>
<path d="M32.1873 475.871L31.8184 475.502L60.9067 446.409V307.945L31.8184 278.851L32.1873 278.482L61.4338 307.729V446.625L32.1873 475.871Z" fill="white"/>
<path d="M88.4188 435.941H73.7402V317.237H88.4188L108.79 337.608V415.571L88.4188 435.941ZM74.7944 434.887H87.9814L107.736 415.133V338.04L87.9814 318.286H74.7944V434.882V434.887Z" fill="white"/>
<path d="M30.832 86.764L83.306 34.29H94.4744L30.832 97.9324V86.764Z" fill="white"/>
<path d="M108.263 337.829V415.354L102.502 421.109V332.073L108.263 337.829Z" fill="white"/>
<path d="M249.668 226.456H249.141V224.443H171.943V226.456H171.416V223.916H249.668V226.456Z" fill="white"/>
<g opacity="0.1">
<path d="M853.424 197.943H886.512V320.39L871.391 335.506V380.39V425.274L886.512 440.39V562.837H853.424L756.213 465.626V380.39V295.154L853.424 197.943Z" fill="white"/>
</g>
<path d="M865.694 632.471H864.639V487.614L858.352 481.331L859.1 480.583L865.694 487.182V632.471Z" fill="white"/>
<path d="M863.813 475.871L834.566 446.625V307.729L863.813 278.482L864.182 278.851L835.093 307.945V446.409L864.182 475.502L863.813 475.871Z" fill="white"/>
<path d="M822.258 435.941H807.58L787.209 415.571V337.608L807.58 317.237H822.258V435.941ZM808.017 434.887H821.204V318.291H808.017L788.263 338.046V415.138L808.017 434.893V434.887Z" fill="white"/>
<path d="M865.168 86.764L812.694 34.29H801.525L865.168 97.9324V86.764Z" fill="white"/>
<path d="M812.91 33.7637H83.0916L30.3066 86.5486V267.172L36.9001 273.765L37.6433 273.022L31.3555 266.734V86.9861L83.5238 34.8178H356.134L365.179 43.8621H530.817L539.862 34.8178H812.472L864.641 86.9861V266.739L858.353 273.027L859.096 273.77L865.69 267.177V86.5486L812.905 33.7637H812.91ZM530.38 42.808H365.616L357.626 34.8178H538.365L530.375 42.808H530.38Z" fill="white"/>
<path d="M787.736 337.829V415.354L793.497 421.109V332.073L787.736 337.829Z" fill="white"/>
<path d="M724.584 226.456H724.057V224.443H646.859V226.456H646.332V223.916H724.584V226.456Z" fill="white"/>
<g opacity="0.1">
<path d="M42.5751 1019H9.48633V896.553L24.6076 881.436V836.552V791.668L9.48633 776.552V654.105H42.5751L139.786 751.316V836.552V921.788L42.5751 1019Z" fill="white"/>
</g>
<path d="M31.3608 584.471V487.614L37.6486 481.331L36.9001 480.583L30.3066 487.182L30.3066 584.471V729.76L36.9001 736.359L37.6486 735.61L31.3608 729.322V584.471Z" fill="white"/>
<path d="M32.1873 938.459L31.8184 938.09L60.9067 908.997V770.533L31.8184 741.439L32.1873 741.07L61.4338 770.317V909.213L32.1873 938.459Z" fill="white"/>
<path d="M88.4188 899.698H73.7402V780.994H88.4188L108.79 801.365V879.327L88.4188 899.698ZM74.7944 898.644H87.9814L107.736 878.89V801.797L87.9814 782.043H74.7944V898.639V898.644Z" fill="white"/>
<path d="M30.832 1130.18L83.306 1182.65H94.4744L30.832 1119.01V1130.18Z" fill="white"/>
<path d="M108.263 879.113V801.587L102.502 795.832V884.868L108.263 879.113Z" fill="white"/>
<g opacity="0.1">
<path d="M853.424 1019H886.512V896.553L871.391 881.436V836.552V791.668L886.512 776.552V654.105H853.424L756.213 751.316V836.552V921.788L853.424 1019Z" fill="white"/>
</g>
<path d="M859.1 736.359L858.352 735.61L864.639 729.322V584.471H865.694V729.76L859.1 736.359Z" fill="white"/>
<path d="M863.813 938.459L834.566 909.213V770.317L863.813 741.07L864.182 741.439L835.093 770.533V908.997L864.182 938.09L863.813 938.459Z" fill="white"/>
<path d="M822.258 899.698H807.58L787.209 879.327V801.365L807.58 780.994H822.258V899.698ZM808.017 898.644H821.204V782.048H808.017L788.263 801.802V878.895L808.017 898.649V898.644Z" fill="white"/>
<path d="M865.168 1130.18L812.694 1182.65H801.525L865.168 1119.01V1130.18Z" fill="white"/>
<path d="M859.1 943.172L858.357 943.915L864.645 950.203V1129.96L812.476 1182.12H539.866L530.821 1173.08H365.183L356.138 1182.12H83.5277L31.3594 1129.96V950.203L37.6472 943.915L36.9041 943.172L30.3105 949.765V1130.39L83.0955 1183.17H812.914L865.699 1130.39V949.765L859.105 943.172H859.1ZM447.999 1182.12H357.63L365.62 1174.13H530.384L538.374 1182.12H448.005H447.999Z" fill="white"/>
<path d="M448 224.18H274.07V229.271L279.52 234.721H448H616.479L621.929 229.271V224.18H448Z" fill="white"/>
<path d="M787.736 879.113V801.587L793.497 795.832V884.868L787.736 879.113Z" fill="white"/>
<path opacity="0.03" d="M754.997 90.0332H638.912L626.758 102.187H448.001H269.244L257.09 90.0332H141.005L124.998 106.045V114.341H448.001H771.003V106.045L754.997 90.0332Z" fill="white"/>
<path d="M466.78 306.428H464.705V293.085L488.218 270H501.551V272.037H489.077L466.78 293.928V306.428Z" fill="white"/>
<path d="M557.234 274.601L553.794 271.224H488.65V270.816H553.968L557.529 274.312L557.234 274.601Z" fill="white"/>
<path d="M465.952 293.509H465.537V324.302H465.952V293.509Z" fill="white"/>
<path d="M704.706 306.428H702.631V293.928L680.334 272.037H667.859V270H681.193L704.706 293.085V306.428Z" fill="white"/>
<path d="M612.179 274.601L611.885 274.312L615.445 270.816H680.763V271.224H615.62L612.179 274.601Z" fill="white"/>
<path d="M703.874 293.509H703.459V324.302H703.874V293.509Z" fill="white"/>
<path d="M501.551 510H488.218L464.705 486.915V473.571H466.78V486.071L489.077 507.962H501.551V510Z" fill="white"/>
<path d="M553.968 509.185H488.65V508.778H553.794L557.234 505.4L557.529 505.69L553.968 509.185Z" fill="white"/>
<path d="M465.952 455.698H465.537V486.492H465.952V455.698Z" fill="white"/>
<path d="M681.193 510H667.859V507.962H680.334L702.631 486.071V473.571H704.706V486.915L681.193 510Z" fill="white"/>
<path d="M680.763 509.185H615.445L611.885 505.69L612.179 505.4L615.62 508.778H680.763V509.185Z" fill="white"/>
<path d="M703.874 455.698H703.459V486.492H703.874V455.698Z" fill="white"/>
<path d="M584.707 275.476H605.223L609.029 271.74L607.564 270.298L604.364 273.439H584.707H565.049L561.85 270.298L560.385 271.74L564.19 275.476H584.707Z" fill="white"/>
<path d="M584.707 504.523H564.19L560.385 508.26L561.85 509.702L565.049 506.561H584.707H604.364L607.564 509.702L609.029 508.26L605.223 504.523H584.707Z" fill="white"/>
<path d="M192.78 306.428H190.705V293.085L214.218 270H227.551V272.037H215.077L192.78 293.928V306.428Z" fill="white"/>
<path d="M283.234 274.601L279.794 271.224H214.65V270.816H279.968L283.529 274.312L283.234 274.601Z" fill="white"/>
<path d="M191.952 293.509H191.537V324.302H191.952V293.509Z" fill="white"/>
<path d="M430.706 306.428H428.631V293.928L406.334 272.037H393.859V270H407.193L430.706 293.085V306.428Z" fill="white"/>
<path d="M338.177 274.601L337.883 274.312L341.443 270.816H406.761V271.224H341.618L338.177 274.601Z" fill="white"/>
<path d="M429.874 293.509H429.459V324.302H429.874V293.509Z" fill="white"/>
<path d="M227.551 510H214.218L190.705 486.915V473.571H192.78V486.071L215.077 507.962H227.551V510Z" fill="white"/>
<path d="M279.968 509.185H214.65V508.778H279.794L283.234 505.4L283.529 505.69L279.968 509.185Z" fill="white"/>
<path d="M191.952 455.698H191.537V486.492H191.952V455.698Z" fill="white"/>
<path d="M407.193 510H393.859V507.962H406.334L428.631 486.071V473.571H430.706V486.915L407.193 510Z" fill="white"/>
<path d="M406.761 509.185H341.443L337.883 505.69L338.177 505.4L341.618 508.778H406.761V509.185Z" fill="white"/>
<path d="M429.874 455.698H429.459V486.492H429.874V455.698Z" fill="white"/>
<path d="M310.705 275.476H331.221L335.027 271.74L333.562 270.298L330.362 273.439H310.705H291.047L287.848 270.298L286.383 271.74L290.188 275.476H310.705Z" fill="white"/>
<path d="M310.705 504.523H290.188L286.383 508.26L287.848 509.702L291.047 506.561H310.705H330.362L333.562 509.702L335.027 508.26L331.221 504.523H310.705Z" fill="white"/>
<path d="M207 580V540H697V562.986L683.424 580H207Z" fill="white"/>
<rect x="189" y="644" width="500" height="72" fill="#2A2A2A"/>
<g opacity="0.5">
<path d="M184.91 628.001H173V633.272H184.91V628.001Z" fill="white"/>
</g>
<path d="M330.617 628H195.209V633.271H330.617V628Z" fill="white"/>
<path d="M429.758 631.953H195.209V633.271H429.758V631.953Z" fill="white"/>
<rect x="189" y="776" width="500" height="72" fill="#2A2A2A"/>
<g opacity="0.5">
<path d="M184.91 760.001H173V765.272H184.91V760.001Z" fill="white"/>
</g>
<path d="M330.617 760H195.209V765.271H330.617V760Z" fill="white"/>
<path d="M519 764H195V765H519V764Z" fill="white"/>
<rect x="189" y="908" width="500" height="72" fill="#2A2A2A"/>
<g opacity="0.5">
<path d="M184.91 892H173V897.271H184.91V892Z" fill="white"/>
</g>
<path d="M330.617 892H195.209V897.271H330.617V892Z" fill="white"/>
<path d="M591 896H195V897H591V896Z" fill="white"/>
<rect x="189" y="1040" width="500" height="72" fill="#2A2A2A"/>
<g opacity="0.5">
<path d="M184.91 1024H173V1029.27H184.91V1024Z" fill="white"/>
</g>
<path d="M330.617 1024H195.209V1029.27H330.617V1024Z" fill="white"/>
<path d="M689 1028H195V1029H689V1028Z" fill="white"/>
</g>
<defs>
<clipPath id="clip0_4593_1328">
<rect width="896" height="1216" fill="white"/>
</clipPath>
</defs>
</svg>
