<svg width="896" height="1216" viewBox="0 0 896 1216" fill="none" xmlns="http://www.w3.org/2000/svg">
<g clip-path="url(#clip0_4594_1447)">
<rect width="896" height="1216" fill="#1A1A1A"/>
<g opacity="0.1">
<path d="M448.399 1160H194.884L143 1211.88V1216.63H289.127L300.095 1205.66H448.399H596.703L607.671 1216.63H753.798V1211.88L701.914 1160H448.399Z" fill="white"/>
</g>
<g opacity="0.1">
<path d="M607.272 9.48828L596.304 20.4564H448.001H299.697L288.729 9.48828H142.602V14.2318L194.485 66.1155H448.001H701.516L753.399 14.2318V9.48828H607.272Z" fill="white"/>
</g>
<g opacity="0.1">
<path d="M42.5751 197.943H9.48633V320.39L24.6076 335.506V380.39V425.274L9.48633 440.39V562.837H42.5751L139.786 465.626V380.39V295.154L42.5751 197.943Z" fill="white"/>
</g>
<path d="M32.1873 475.873L31.8184 475.504L60.9067 446.411V307.947L31.8184 278.853L32.1873 278.484L61.4338 307.731V446.627L32.1873 475.873Z" fill="white"/>
<path d="M88.4188 435.942H73.7402V317.238H88.4188L108.79 337.609V415.572L88.4188 435.942ZM74.7944 434.888H87.9814L107.736 415.134V338.041L87.9814 318.287H74.7944V434.883V434.888Z" fill="white"/>
<path d="M30.832 86.765L83.306 34.291H94.4744L30.832 97.9334V86.765Z" fill="white"/>
<path d="M108.263 337.83V415.355L102.502 421.11V332.074L108.263 337.83Z" fill="white"/>
<path d="M249.668 226.458H249.141V224.445H171.943V226.458H171.416V223.918H249.668V226.458Z" fill="white"/>
<g opacity="0.1">
<path d="M853.424 197.943H886.512V320.39L871.391 335.506V380.39V425.274L886.512 440.39V562.837H853.424L756.213 465.626V380.39V295.154L853.424 197.943Z" fill="white"/>
</g>
<path d="M865.694 632.472H864.639V487.615L858.352 481.332L859.1 480.584L865.694 487.183V632.472Z" fill="white"/>
<path d="M863.813 475.873L834.566 446.627V307.731L863.813 278.484L864.182 278.853L835.093 307.947V446.411L864.182 475.504L863.813 475.873Z" fill="white"/>
<path d="M822.258 435.942H807.58L787.209 415.572V337.609L807.58 317.238H822.258V435.942ZM808.017 434.888H821.204V318.292H808.017L788.263 338.047V415.139L808.017 434.894V434.888Z" fill="white"/>
<path d="M865.168 86.765L812.694 34.291H801.525L865.168 97.9334V86.765Z" fill="white"/>
<path d="M812.91 33.7656H83.0916L30.3066 86.5506V267.174L36.9001 273.767L37.6433 273.024L31.3555 266.736V86.988L83.5238 34.8197H356.134L365.179 43.8641H530.817L539.862 34.8197H812.472L864.641 86.988V266.741L858.353 273.029L859.096 273.772L865.69 267.179V86.5506L812.905 33.7656H812.91ZM530.38 42.81H365.616L357.626 34.8197H538.365L530.375 42.81H530.38Z" fill="white"/>
<path d="M787.736 337.83V415.355L793.497 421.11V332.074L787.736 337.83Z" fill="white"/>
<path d="M724.584 226.458H724.057V224.445H646.859V226.458H646.332V223.918H724.584V226.458Z" fill="white"/>
<g opacity="0.1">
<path d="M42.5751 1019H9.48633V896.553L24.6076 881.436V836.552V791.668L9.48633 776.552V654.105H42.5751L139.786 751.316V836.552V921.788L42.5751 1019Z" fill="white"/>
</g>
<path d="M31.3608 584.472V487.615L37.6486 481.332L36.9001 480.584L30.3066 487.183L30.3066 584.472V729.761L36.9001 736.36L37.6486 735.611L31.3608 729.323V584.472Z" fill="white"/>
<path d="M32.1873 938.459L31.8184 938.09L60.9067 908.997V770.533L31.8184 741.439L32.1873 741.07L61.4338 770.317V909.213L32.1873 938.459Z" fill="white"/>
<path d="M88.4188 899.7H73.7402V780.996H88.4188L108.79 801.367V879.329L88.4188 899.7ZM74.7944 898.646H87.9814L107.736 878.892V801.799L87.9814 782.045H74.7944V898.641V898.646Z" fill="white"/>
<path d="M30.832 1130.18L83.306 1182.65H94.4744L30.832 1119.01V1130.18Z" fill="white"/>
<path d="M108.263 879.113V801.587L102.502 795.832V884.868L108.263 879.113Z" fill="white"/>
<g opacity="0.1">
<path d="M853.424 1019H886.512V896.553L871.391 881.436V836.552V791.668L886.512 776.552V654.105H853.424L756.213 751.316V836.552V921.788L853.424 1019Z" fill="white"/>
</g>
<path d="M859.1 736.36L858.352 735.612L864.639 729.324V584.473H865.694V729.762L859.1 736.36Z" fill="white"/>
<path d="M863.813 938.459L834.566 909.213V770.317L863.813 741.07L864.182 741.439L835.093 770.533V908.997L864.182 938.09L863.813 938.459Z" fill="white"/>
<path d="M822.258 899.7H807.58L787.209 879.329V801.367L807.58 780.996H822.258V899.7ZM808.017 898.646H821.204V782.05H808.017L788.263 801.804V878.897L808.017 898.651V898.646Z" fill="white"/>
<path d="M865.168 1130.18L812.694 1182.65H801.525L865.168 1119.01V1130.18Z" fill="white"/>
<path d="M859.1 943.172L858.357 943.915L864.645 950.203V1129.96L812.476 1182.12H539.866L530.821 1173.08H365.183L356.138 1182.12H83.5277L31.3594 1129.96V950.203L37.6472 943.915L36.9041 943.172L30.3105 949.765V1130.39L83.0955 1183.17H812.914L865.699 1130.39V949.765L859.105 943.172H859.1ZM447.999 1182.12H357.63L365.62 1174.13H530.384L538.374 1182.12H448.005H447.999Z" fill="white"/>
<path d="M448 224.18H274.07V229.271L279.52 234.721H448H616.479L621.929 229.271V224.18H448Z" fill="white"/>
<path d="M787.736 879.113V801.587L793.497 795.832V884.868L787.736 879.113Z" fill="white"/>
<path opacity="0.03" d="M754.997 90.0352H638.912L626.758 102.189H448.001H269.244L257.09 90.0352H141.005L124.998 106.047V114.343H448.001H771.003V106.047L754.997 90.0352Z" fill="white"/>
<path d="M203 580V540H693V562.986L679.424 580H203Z" fill="white"/>
<rect x="189" y="644" width="500" height="72" fill="#2A2A2A"/>
<g opacity="0.5">
<path d="M184.91 628H173V633.271H184.91V628Z" fill="white"/>
</g>
<path d="M330.617 628H195.209V633.271H330.617V628Z" fill="white"/>
<path d="M429.758 631.953H195.209V633.271H429.758V631.953Z" fill="white"/>
<rect x="189" y="776" width="500" height="72" fill="#2A2A2A"/>
<g opacity="0.5">
<path d="M184.91 760H173V765.271H184.91V760Z" fill="white"/>
</g>
<path d="M330.617 760H195.209V765.271H330.617V760Z" fill="white"/>
<path d="M519 764H195V765H519V764Z" fill="white"/>
<rect x="189" y="908" width="500" height="72" fill="#2A2A2A"/>
<g opacity="0.5">
<path d="M184.91 892H173V897.271H184.91V892Z" fill="white"/>
</g>
<path d="M330.617 892H195.209V897.271H330.617V892Z" fill="white"/>
<path d="M591 896H195V897H591V896Z" fill="white"/>
<rect x="189" y="1040" width="500" height="72" fill="#2A2A2A"/>
<g opacity="0.5">
<path d="M184.91 1024H173V1029.27H184.91V1024Z" fill="white"/>
</g>
<path d="M330.617 1024H195.209V1029.27H330.617V1024Z" fill="white"/>
<path d="M689 1028H195V1029H689V1028Z" fill="white"/>
</g>
<defs>
<clipPath id="clip0_4594_1447">
<rect width="896" height="1216" fill="white"/>
</clipPath>
</defs>
</svg>
