<svg width="36" height="36" viewBox="0 0 36 36" fill="none" xmlns="http://www.w3.org/2000/svg">
<path d="M29.1336 3.64624H6.80286C5.92559 3.64624 5.20781 4.29272 5.20781 5.09175V33.0867C5.20781 33.8857 5.7262 34.0891 6.3722 33.5298L17.3222 24.0722C17.5774 23.8543 18.0001 23.8543 18.2553 24.065L29.5563 33.5516C30.2023 34.0964 30.7286 33.8857 30.7286 33.0867V5.09175C30.7286 4.29272 30.0188 3.64624 29.1336 3.64624ZM28.3361 29.571L19.8743 22.4669C19.2841 21.973 18.5424 21.726 17.7928 21.726C17.0271 21.726 16.2695 21.9802 15.6793 22.4887L7.60039 29.4693V5.8254H28.3361V29.571Z" fill="#333333"/>
<path fill-rule="evenodd" clip-rule="evenodd" d="M4.6875 5.0766C4.6875 3.94545 5.68444 3.12549 6.78267 3.12549H29.1548C30.2627 3.12549 31.25 3.94698 31.25 5.0766V33.1016C31.25 33.5792 31.0891 34.1096 30.5897 34.3081C30.119 34.4951 29.6295 34.2655 29.2608 33.9549C29.2609 33.955 29.2607 33.9548 29.2608 33.9549L17.9427 24.4612C17.9423 24.4609 17.942 24.4607 17.9416 24.4604C17.8689 24.4016 17.7134 24.4028 17.6424 24.4626C17.6426 24.4624 17.6421 24.4628 17.6424 24.4626L6.67392 33.9286C6.31039 34.2431 5.82307 34.4866 5.34919 34.3047C4.84337 34.1106 4.6875 33.5733 4.6875 33.1016V5.0766ZM6.78267 4.13358C6.12309 4.13358 5.68182 4.60798 5.68182 5.0766V33.1016C5.68182 33.2335 5.70123 33.3126 5.71707 33.3529C5.72333 33.3513 5.73057 33.3492 5.73886 33.3464C5.80126 33.3253 5.90006 33.2729 6.02849 33.1618L16.9993 23.6937L17.0014 23.6918C17.4417 23.3162 18.1313 23.3173 18.5701 23.6792L18.5733 23.6818L29.8961 33.1794C30.0231 33.2864 30.1209 33.3361 30.1829 33.3557C30.1962 33.3599 30.2068 33.3624 30.2151 33.364C30.2322 33.3268 30.2557 33.2453 30.2557 33.1016V5.0766C30.2557 4.60645 29.8207 4.13358 29.1548 4.13358H6.78267ZM7.08452 5.30699H28.853V30.6534L19.562 22.8593C19.5621 22.8594 19.5619 22.8592 19.562 22.8593C19.0667 22.4452 18.4376 22.2328 17.793 22.2328C17.1322 22.2328 16.4903 22.4521 15.9974 22.8765L7.08452 30.5716V5.30699ZM8.07884 6.31509V28.3891L15.3538 22.108C16.0434 21.5144 16.9197 21.2247 17.793 21.2247C18.6503 21.2247 19.5076 21.507 20.1947 22.0816L27.8587 28.5109V6.31509H8.07884Z" fill="#333333"/>
</svg>
