<svg width="36" height="36" viewBox="0 0 36 36" fill="none" xmlns="http://www.w3.org/2000/svg">
<path d="M27.75 3H8.25C6.4625 3 5 4.34966 5 5.99925V31.4929C5 32.0327 5.30875 32.5276 5.8125 32.7975C6.31625 33.0675 6.93375 33.0675 7.4375 32.7975L18 27.2189L28.5625 32.7975C28.8063 32.9325 29.0825 32.9925 29.375 32.9925C29.6675 32.9925 29.9438 32.9325 30.1875 32.7975C30.6913 32.5276 31 32.0327 31 31.4929V5.99925C31 4.34966 29.5375 3 27.75 3ZM27.75 14.997V28.9135L18.8125 24.2047C18.5685 24.0729 18.2909 24.0034 18.0081 24.0034C17.7254 24.0034 17.4478 24.0729 17.2038 24.2047L8.26625 28.9135V5.99925H27.7663V14.997H27.75Z" fill="#333333"/>
</svg>
