<svg width="36" height="36" viewBox="0 0 36 36" fill="none" xmlns="http://www.w3.org/2000/svg">
<path fill-rule="evenodd" clip-rule="evenodd" d="M31.942 31.7391L30.3246 25.7068C30.2318 25.3687 30.2782 25.0042 30.4373 24.686C31.8492 21.8555 32.3199 18.4748 31.4515 14.9482C30.2715 10.1754 26.5461 6.34397 21.7866 5.07786C20.4874 4.73979 19.208 4.57407 17.9684 4.57407C9.07252 4.57407 2.12549 12.9198 4.52513 22.2068C5.63878 26.5023 10.2259 30.9502 14.5413 31.9976C15.708 32.2826 16.8548 32.4152 17.9684 32.4152C20.3614 32.4152 22.602 31.7987 24.5707 30.7381C24.7895 30.6188 25.0348 30.5525 25.2734 30.5525C25.3927 30.5525 25.512 30.5658 25.6314 30.5989L31.5045 32.1699C31.5377 32.1766 31.5708 32.1832 31.5973 32.1832C31.8227 32.1832 32.0017 31.9711 31.942 31.7391ZM28.4685 26.204L29.3833 29.6178L26.1285 28.7495C25.8501 28.6765 25.5651 28.6368 25.2734 28.6368C24.7166 28.6368 24.1531 28.7826 23.6493 29.0544C21.8794 30.0089 19.9703 30.4928 17.9684 30.4928C16.9807 30.4928 15.9798 30.3669 14.9921 30.1283C11.3396 29.24 7.31587 25.3157 6.38784 21.7229C5.42002 17.971 6.18234 14.1196 8.47592 11.1565C10.7695 8.19342 14.2298 6.49644 17.9684 6.49644C19.0688 6.49644 20.1891 6.64227 21.2961 6.94057C25.3861 8.0277 28.5613 11.2758 29.5888 15.4122C30.3113 18.3289 30.013 21.239 28.7204 23.8309C28.3492 24.5733 28.2564 25.4151 28.4685 26.204Z" fill="#333333"/>
<path fill-rule="evenodd" clip-rule="evenodd" d="M5.04153 22.0737C2.73117 13.1319 9.41367 5.10831 17.9682 5.10831C19.1596 5.10831 20.3933 5.26752 21.6505 5.59452C26.2191 6.81036 29.7996 10.4914 30.9332 15.0769C31.7707 18.4786 31.3156 21.7295 29.9597 24.4479C29.7477 24.8719 29.679 25.3707 29.8093 25.847C29.8094 25.8476 29.8096 25.8481 29.8097 25.8487L31.3453 31.5756L25.7739 30.0853C25.7731 30.0851 25.7722 30.0848 25.7713 30.0846C25.599 30.037 25.4316 30.0194 25.2732 30.0194C24.9384 30.0194 24.6064 30.1115 24.3162 30.2696C22.4211 31.2902 20.2675 31.8821 17.9682 31.8821C16.8971 31.8821 15.7929 31.7547 14.6677 31.4798C12.626 30.9842 10.481 29.6705 8.70488 27.9387C6.92863 26.2068 5.5676 24.1026 5.04153 22.0737ZM17.9682 7.03067C14.3948 7.03067 11.0903 8.65109 8.89768 11.4837C6.70892 14.3114 5.97615 17.9917 6.90428 21.59C7.33676 23.2643 8.50828 25.0622 10.0409 26.5585C11.5729 28.0544 13.4105 29.195 15.1176 29.6102C16.0671 29.8396 17.0258 29.9598 17.9682 29.9598C19.8811 29.9598 21.7032 29.4981 23.3958 28.5853C23.9743 28.2732 24.6245 28.1037 25.2732 28.1037C25.6139 28.1037 25.9444 28.1502 26.2635 28.2338L26.2658 28.2344L28.6286 28.8648L27.9529 26.3431C27.7056 25.4235 27.8154 24.4477 28.2428 23.5928C29.4762 21.1195 29.7639 18.3402 29.0706 15.5415C28.0895 11.5917 25.0586 8.49348 21.1588 7.4569L21.157 7.45643C20.0951 7.17028 19.0215 7.03067 17.9682 7.03067Z" fill="#333333"/>
<path fill-rule="evenodd" clip-rule="evenodd" d="M17.9682 4.04102C8.73093 4.04102 1.5194 12.7088 4.00821 22.3409C4.59584 24.6074 6.08528 26.8752 7.95978 28.7029C9.83432 30.5306 12.141 31.9646 14.4144 32.5166C15.6226 32.8118 16.8119 32.9494 17.9682 32.9494C20.4544 32.9494 22.7814 32.3087 24.8236 31.2085L24.826 31.2072C24.973 31.127 25.1311 31.0867 25.2732 31.0867C25.3525 31.0867 25.4229 31.0955 25.4883 31.1137L31.3829 32.6905L31.3996 32.6938L31.4043 32.6948C31.4286 32.6998 31.513 32.7174 31.5971 32.7174C32.1548 32.7174 32.6091 32.192 32.4586 31.6067L30.8398 25.5692L30.8389 25.5661C30.7842 25.3668 30.8086 25.1367 30.9146 24.9248C32.3823 21.9824 32.8683 18.4717 31.9693 14.8207C30.7432 9.8611 26.8734 5.87947 21.9236 4.56274L21.9208 4.562C20.58 4.21312 19.2555 4.04102 17.9682 4.04102ZM17.9682 5.10831C9.41367 5.10831 2.73117 13.1319 5.04153 22.0737C5.5676 24.1026 6.92863 26.2068 8.70488 27.9387C10.481 29.6705 12.626 30.9842 14.6677 31.4798C15.7929 31.7547 16.8971 31.8821 17.9682 31.8821C20.2675 31.8821 22.4211 31.2902 24.3162 30.2696C24.6064 30.1115 24.9384 30.0194 25.2732 30.0194C25.4316 30.0194 25.599 30.037 25.7713 30.0846C25.7722 30.0848 25.7731 30.0851 25.7739 30.0853L31.3453 31.5756L29.8097 25.8487C29.8096 25.8481 29.8094 25.8476 29.8093 25.847C29.679 25.3707 29.7477 24.8719 29.9597 24.4479C31.3156 21.7295 31.7707 18.4786 30.9332 15.0769C29.7996 10.4914 26.2191 6.81036 21.6505 5.59452C20.3933 5.26752 19.1596 5.10831 17.9682 5.10831Z" fill="#333333"/>
</svg>
