<svg width="36" height="36" viewBox="0 0 36 36" fill="none" xmlns="http://www.w3.org/2000/svg">
<path d="M18 31C15.4288 31 12.9154 30.2376 10.7776 28.8091C8.63976 27.3806 6.97351 25.3503 5.98957 22.9749C5.00563 20.5994 4.74819 17.9856 5.2498 15.4638C5.75141 12.9421 6.98954 10.6257 8.80762 8.80762C10.6257 6.98953 12.9421 5.7514 15.4638 5.2498C17.9856 4.74819 20.5994 5.00563 22.9749 5.98957C25.3503 6.97351 27.3806 8.63975 28.8091 10.7776C30.2376 12.9154 31 15.4288 31 18C31 20.1493 30.48 22.1759 29.5556 23.9612L31 31L23.9612 29.5556C22.1759 30.48 20.1479 31 18 31Z" stroke="#333333" stroke-width="3" stroke-linecap="round" stroke-linejoin="round"/>
</svg>
