<svg width="36" height="36" viewBox="0 0 36 36" fill="none" xmlns="http://www.w3.org/2000/svg">
<path d="M28.7567 18.8659L17.5125 30L6.26832 18.8659C5.52666 18.1444 4.94247 17.2771 4.55253 16.3187C4.16259 15.3603 3.97535 14.3316 4.0026 13.2973C4.02985 12.263 4.271 11.2456 4.71086 10.309C5.15073 9.37251 5.77978 8.53718 6.5584 7.85566C7.33702 7.17413 8.24835 6.66117 9.235 6.34908C10.2216 6.03699 11.2622 5.93253 12.2913 6.04228C13.3203 6.15203 14.3154 6.47361 15.214 6.98677C16.1126 7.49993 16.8952 8.19355 17.5125 9.02395C18.1325 8.19958 18.916 7.51201 19.814 7.0043C20.7119 6.49659 21.7051 6.17966 22.7312 6.07334C23.7573 5.96702 24.7943 6.07361 25.7774 6.38642C26.7604 6.69924 27.6683 7.21156 28.4442 7.89131C29.22 8.57106 29.8472 9.40361 30.2865 10.3369C30.7258 11.2701 30.9676 12.284 30.997 13.315C31.0263 14.346 30.8425 15.3719 30.457 16.3286C30.0715 17.2853 29.4926 18.1522 28.7567 18.8749" stroke="#333333" stroke-width="3" stroke-linecap="round" stroke-linejoin="round"/>
</svg>
