<svg width="36" height="36" viewBox="0 0 36 36" fill="none" xmlns="http://www.w3.org/2000/svg">
<path fill-rule="evenodd" clip-rule="evenodd" d="M11.8976 6.27131C10.4494 6.27131 9.02136 6.67963 7.75636 7.45391C3.84121 9.8537 2.46338 15.2115 4.73746 19.3927C5.16297 20.1757 5.92502 21.1161 6.90352 22.1348C7.87656 23.1479 9.04129 24.2159 10.2501 25.2538C12.6674 27.3296 15.2397 29.2672 16.7595 30.38C17.1237 30.6472 17.5519 30.7874 18.0014 30.7874C18.4499 30.7874 18.8787 30.6481 19.2507 30.3791C20.7708 29.2662 23.3423 27.329 25.759 25.2538C26.9678 24.2159 28.1325 23.1479 29.1056 22.1348C30.084 21.1161 30.846 20.1759 31.2715 19.3928C33.5395 15.2113 32.1614 9.85342 28.2461 7.45376C26.9812 6.67957 25.5533 6.27131 24.1052 6.27131C21.9353 6.27131 19.893 7.1469 18.3576 8.71504L18.0014 9.07882L17.6452 8.71504C16.1097 7.1469 14.0674 6.27131 11.8976 6.27131ZM7.23417 6.6235C8.65104 5.75626 10.2591 5.29407 11.8976 5.29407C14.1795 5.29407 16.3303 6.15441 18.0014 7.69084C19.6724 6.15441 21.8233 5.29407 24.1052 5.29407C25.7436 5.29407 27.3517 5.75626 28.7686 6.6235C33.1518 9.31001 34.6456 15.2437 32.1447 19.8543C31.6562 20.7532 30.8217 21.7688 29.8245 22.807C28.822 23.8509 27.6317 24.9413 26.4093 25.991C23.9641 28.0906 21.3687 30.0453 19.8399 31.1648L19.8376 31.1664C19.2991 31.5561 18.6656 31.7647 18.0014 31.7647C17.3376 31.7647 16.7028 31.5563 16.1688 31.1645C14.6398 30.045 12.0447 28.0904 9.59978 25.991C8.37732 24.9413 7.1871 23.8509 6.18452 22.807C5.18745 21.7689 4.35314 20.7536 3.86465 19.8547M7.23417 6.6235C2.85093 9.30999 1.35705 15.244 3.86465 19.8547L7.23417 6.6235ZM8.24008 8.20271C9.35301 7.52227 10.6131 7.15943 11.8976 7.15943C14.1508 7.15943 16.2355 8.23487 17.6384 10.0781L17.6398 10.08L18.0014 10.5598L18.3629 10.08L18.3644 10.0781C19.7674 8.23465 21.8585 7.15943 24.1052 7.15943C25.3893 7.15943 26.6497 7.52207 27.757 8.20314C31.3143 10.3816 32.5063 15.216 30.4619 18.9719C30.0038 19.8136 29.1685 20.7962 28.1725 21.8048C27.1688 22.8211 25.9724 23.893 24.7634 24.9147C22.3448 26.9586 19.8534 28.8208 18.7018 29.6659L18.6993 29.6677C18.2845 29.9682 17.7119 29.9682 17.2971 29.6677L17.2953 29.6664C16.1432 28.824 13.6517 26.9634 11.233 24.9194C10.024 23.8976 8.82753 22.8253 7.82382 21.8082C6.82784 20.7989 5.99264 19.8152 5.53458 18.9719M8.76233 9.03309C5.67779 10.9278 4.59369 15.1778 6.40722 18.5096C6.79678 19.2269 7.55089 20.1307 8.53354 21.1265C9.50862 22.1146 10.6806 23.1657 11.8774 24.1772C14.2698 26.199 16.7394 28.0436 17.8839 28.8804C17.9494 28.9275 18.0462 28.9276 18.1119 28.8809C19.2569 28.0405 21.7266 26.1943 24.119 24.1725C25.3159 23.161 26.4879 22.1102 27.463 21.1228C28.4457 20.1277 29.1996 19.2255 29.5892 18.5096C31.403 15.1774 30.3181 10.9214 27.2343 9.03322L27.2334 9.03268C26.2789 8.44548 25.1991 8.13668 24.1052 8.13668C22.1903 8.13668 20.3854 9.05082 19.1572 10.6639C19.1569 10.6643 19.1567 10.6646 19.1564 10.6649L18.0014 12.1978L16.8463 10.6649C16.8461 10.6645 16.8458 10.6642 16.8455 10.6639C15.6172 9.05058 13.8185 8.13668 11.8976 8.13668C10.804 8.13668 9.72394 8.44528 8.76233 9.03309ZM8.24008 8.20271C4.68354 10.387 3.48999 15.2155 5.53458 18.9719L8.24008 8.20271Z" fill="#333333"/>
<path d="M17.9993 31.2354C17.444 31.2354 16.9139 31.0618 16.4659 30.7333C13.4243 28.5083 6.15464 22.9734 4.33092 19.6203C1.94558 15.2384 3.37805 9.61058 7.51769 7.0756C8.85551 6.25747 10.37 5.82361 11.9098 5.82361C14.2131 5.82361 16.3775 6.75331 17.9993 8.40817C19.6211 6.75331 21.7856 5.82361 24.0889 5.82361C25.6286 5.82361 27.1432 6.25747 28.481 7.0756C32.6206 9.61058 34.0531 15.2384 31.674 19.6203C29.8503 22.9734 22.5807 28.5083 19.5391 30.7333C19.0847 31.0618 18.5546 31.2354 17.9993 31.2354ZM11.9098 7.68301C10.7234 7.68301 9.55596 8.0177 8.52105 8.64989C5.20807 10.6828 4.07219 15.2074 5.99688 18.7402C7.68807 21.8516 15.2985 27.5662 17.5892 29.2396C17.8289 29.4132 18.1634 29.4132 18.4032 29.2396C20.6939 27.56 28.3043 21.8454 29.9955 18.7402C31.9202 15.2074 30.7843 10.6766 27.4713 8.64989C26.4427 8.0177 25.2753 7.68301 24.0889 7.68301C22.0128 7.68301 20.0692 8.67468 18.7566 10.3977L17.9993 11.4018L17.2421 10.3977C15.9295 8.67468 13.9922 7.68301 11.9098 7.68301Z" fill="#333333"/>
</svg>
