<svg width="126" height="113" viewBox="0 0 126 113" fill="none" xmlns="http://www.w3.org/2000/svg">
<path d="M54.1515 20.9423C61.7395 13.2806 68.6678 9.18959 79.6575 9.06641C98.9593 8.8517 116.311 25.5264 116.132 44.9702C115.973 62.2869 104.93 79.1488 93.1013 91.1193C87.1879 96.9153 80.6783 103.926 70.8481 106.016C57.3199 106.501 50.4304 104.131 39.2715 97.9277C22.6593 88.6927 14.1179 78.8854 7.98786 69.6861C0.990798 51.8455 5.02594 32.7433 21.4993 23.4267C21.4993 23.4267 40.169 14.8287 54.1515 20.9423Z" fill="#DE9898"/>
<path d="M56.5851 15.6445C64.1731 7.9827 71.1014 3.89174 82.0911 3.76856C101.393 3.55384 118.745 20.2286 118.566 39.6723C118.407 56.9891 107.363 73.851 95.5349 85.8214C89.6215 91.6174 83.1119 98.6279 73.2817 100.718C59.7535 101.203 52.864 98.8332 41.7051 92.6298C25.0929 83.3948 16.5515 73.5875 10.4215 64.3883C3.42439 46.5477 7.45954 27.4455 23.9329 18.1288C23.9329 18.1288 42.6026 9.53087 56.5851 15.6445Z" fill="#FFFEFE"/>
<path d="M77.9351 19.1395C81.922 18.4353 85.7275 18.7783 89.5932 19.9497C94.6558 21.4841 98.7176 24.5162 101.155 29.2757C104.547 35.8988 104.09 43.208 101.776 50.094C97.2108 63.6893 83.8836 79.9408 71.009 86.3998C63.2492 85.195 56.1903 82.1995 49.1334 78.9111C45.655 77.3278 42.2234 75.3309 39.1356 73.0838C31.9055 67.8235 24.7529 59.9168 23.4747 50.7245C22.6922 45.0963 24.1172 39.0608 27.6573 34.5688C30.5794 30.8602 34.7039 28.7494 39.3618 28.2006C47.7232 27.2153 54.6156 31.1556 60.9328 36.1484C65.2588 27.9901 69.3788 22.919 77.9351 19.1395Z" fill="#E36869"/>
<path d="M32.9753 36.2466C35.3506 34.9785 36.0513 35.8401 37.5578 36.7475C38.4676 39.9893 38.0715 43.6364 33.8475 48.7263C32.0239 50.4364 30.7492 49.8607 29.3746 49.2194C28.6585 48.0257 28.6043 47.5495 28.6031 46.1513C28.6012 42.5578 30.5778 38.7645 32.9753 36.2466Z" fill="#FCF0EA"/>
<path d="M30.6554 51.9194C31.7197 51.1612 33.1951 51.3938 33.9748 52.4427C34.7543 53.4906 34.5533 54.9705 33.5209 55.7715C32.8342 56.305 31.9119 56.4258 31.1119 56.0864C30.3109 55.7472 29.7558 55.0015 29.6615 54.1367C29.5661 53.2719 29.9465 52.4241 30.6554 51.9194Z" fill="#FCF0EA"/>
</svg>
