<svg width="115" height="113" viewBox="0 0 115 113" fill="none" xmlns="http://www.w3.org/2000/svg">
<g style="mix-blend-mode:multiply">
<path d="M104.397 42.196C104.363 39.9363 103.209 39.1486 101.143 40.0081C95.1269 42.5371 88.7578 44.1268 82.2587 44.7215C80.8053 44.8559 79.602 44.0057 79.4739 42.7649C79.3332 41.399 80.1427 40.4082 81.693 40.2394C85.9762 39.8063 90.2047 38.9413 94.3139 37.6577C100.39 35.7168 103.425 29.8783 101.503 23.8147C100.557 20.8006 99.4079 17.8538 98.0646 14.9944C97.8302 14.5006 97.5832 14.0224 97.0644 13.7724C93.1012 11.8502 89.0411 10.128 84.706 9.31847C79.4707 8.33705 74.6668 11.2626 72.829 16.2853C71.1237 20.962 70.0311 25.8399 69.5784 30.7972C69.4596 32.1099 68.7814 32.9851 67.7031 33.2476C66.8404 33.4539 65.8027 32.9601 65.287 32.1068C65.0199 31.5973 64.9298 31.0135 65.0307 30.4471C65.6679 23.5375 67.4366 16.7795 70.266 10.4437C70.5098 9.89669 70.7599 9.36847 70.6317 8.71836C70.4848 7.9776 69.9066 7.64317 69.4127 7.21497C68.9877 6.84303 65.7277 7.14934 65.0995 7.17747C60.8269 7.35875 56.8418 9.41223 54.9821 13.3754C50.77 22.2578 48.9082 32.0725 49.5749 41.8804C49.6218 42.6055 49.6875 43.3337 49.7375 44.0682C49.8562 45.8498 48.6935 47.3438 47.0558 47.5282C45.3492 47.7189 43.899 46.5093 43.7052 44.6621C42.6172 34.414 44.0341 24.0551 47.834 14.4756C48.231 13.4598 48.7342 12.4503 47.7652 11.4907C46.8432 10.5749 45.8493 11.0156 44.8523 11.3751C41.4932 12.59 38.2391 14.0775 35.1224 15.8227C33.7682 16.5577 32.5936 17.5835 31.683 18.8265C30.7724 20.0695 30.1484 21.4987 29.8559 23.0115C27.3503 34.1886 28.2752 45.8616 32.5095 56.5048C33.7159 59.5897 31.3843 62.1589 28.8901 61.9901C28.1401 61.9674 27.4149 61.7169 26.8107 61.2719C26.2066 60.8269 25.7523 60.2085 25.5083 59.499C21.9645 50.5804 20.4392 40.9878 21.0419 31.4098C21.1013 30.4721 20.7293 29.7314 19.8323 29.3532C19.0071 29.0062 18.2039 29.2782 17.5006 30.1346C13.278 35.2511 10.1931 40.8583 8.48033 47.0687C7.8792 49.2461 7.46101 51.4698 7.23011 53.7168C7.10197 54.967 7.05196 56.0578 7.0332 56.8423C7.06133 61.7588 7.74895 68.0067 10.2744 74.2422C11.028 76.1592 11.9287 78.0151 12.9686 79.7932C14.7361 82.9042 16.8385 85.8126 19.2384 88.4665C19.6948 88.9729 19.7729 89.2635 19.2759 89.8293C16.3976 93.1246 14.1837 96.9454 12.7561 101.081C12.281 102.431 12.6936 103.482 13.85 103.872C14.9439 104.244 15.8722 103.691 16.3504 102.331C17.6153 98.7153 19.5387 95.3645 22.0233 92.4485C22.1858 92.2609 22.3577 92.0828 22.5453 91.8734C26.2959 95.3115 30.4154 98.2026 35.0287 100.312C48.7154 106.563 62.124 106.098 75.22 98.5527C76.0795 98.0557 76.7234 97.4431 76.5515 96.3648C76.3796 95.2865 75.5669 94.8739 74.5418 94.6739C64.497 92.7336 55.0519 88.4501 46.9745 82.1717C45.0679 80.6964 44.621 78.4211 45.9024 76.6739C47.1839 74.9267 49.5281 74.5579 51.3659 75.9644C54.9735 78.7522 58.8856 81.1219 63.0273 83.0281C68.9594 85.7597 75.3246 87.43 81.8336 87.9633C85.5062 88.2571 88.6442 86.9069 90.9227 83.9689C93.9238 80.0439 96.4354 75.7679 98.4021 71.2354C99.1429 69.5695 98.0052 68.1912 96.1236 68.4787C92.4571 69.0398 88.7487 69.2803 85.0405 69.1976C79.083 69.0576 73.1733 68.0973 67.478 66.344C66.6909 66.1243 66.0212 65.6051 65.6122 64.8976C65.2033 64.1901 65.0877 63.3506 65.2902 62.5589C65.7465 60.9118 67.4437 59.9804 69.2096 60.5148C72.4172 61.4959 75.701 62.2079 79.0269 62.6433C84.4685 63.3309 89.9132 63.3841 95.3079 62.362C99.6836 61.5369 103.028 57.8425 103.647 53.4511C104.187 49.7244 104.438 45.9615 104.397 42.196Z" fill="#6EAFA5" stroke="#6EAFA5" stroke-width="14.0649" stroke-miterlimit="10"/>
</g>
<path d="M107.029 43.3773C106.994 41.1175 105.841 40.3298 103.775 41.1894C97.7598 43.7181 91.3917 45.3078 84.8937 45.9027C83.4434 46.0371 82.2401 45.1901 82.112 43.9461C81.9713 42.5834 82.7808 41.5894 84.3311 41.4207C88.6145 40.989 92.8431 40.124 96.952 38.839C103.028 36.9011 106.063 31.0626 104.141 24.9991C103.195 21.9839 102.046 19.0361 100.703 16.1757C100.468 15.6818 100.221 15.2067 99.7025 14.9536C95.7393 13.0314 91.6792 11.3123 87.341 10.4997C82.1088 9.51826 77.3049 12.4438 75.4796 17.4696C73.7804 22.143 72.6931 27.0166 72.2446 31.969C72.1227 33.2818 71.4476 34.1569 70.3693 34.4195C69.5098 34.6289 68.4721 34.1319 67.9564 33.2786C67.6893 32.7703 67.5991 32.1874 67.7001 31.6221C68.3372 24.7124 70.1059 17.9545 72.9354 11.6186C73.1792 11.0717 73.4292 10.5434 73.2979 9.89333C73.1542 9.1557 72.5759 8.82127 72.0821 8.38994C71.657 8.018 68.3971 8.32743 67.7688 8.35244C63.4962 8.53372 59.5112 10.5903 57.6515 14.5535C53.4251 23.4342 51.5504 33.2515 52.2068 43.0647C52.2537 43.7929 52.3193 44.5181 52.3693 45.2526C52.4881 47.031 51.3254 48.5281 49.6876 48.7094C47.981 48.9001 46.5308 47.6936 46.337 45.8433C45.2491 35.5953 46.6659 25.2363 50.4659 15.6568C50.8628 14.641 51.366 13.6315 50.3971 12.6719C49.4751 11.7562 48.4811 12.1969 47.4841 12.5594C44.1246 13.772 40.8704 15.2585 37.7543 17.0039C36.4003 17.7393 35.2259 18.7652 34.3154 20.0081C33.4048 21.251 32.7807 22.68 32.4877 24.1927C29.9841 35.3668 30.9089 47.0363 35.1413 57.6766C36.3478 60.7615 34.0161 63.3307 31.5219 63.1651C30.7705 63.1458 30.0428 62.8979 29.4358 62.4546C28.8288 62.0112 28.3714 61.3933 28.1245 60.6834C24.5814 51.7634 23.0562 42.17 23.6581 32.591C23.7175 31.6533 23.3455 30.9157 22.4485 30.5375C21.6234 30.1875 20.8201 30.4625 20.1168 31.3158C15.9067 36.4354 12.8125 42.0395 11.1122 48.25C10.5114 50.4274 10.0932 52.6511 9.86195 54.898C9.7338 56.1482 9.68379 57.2421 9.66504 58.0423C9.69317 62.9588 10.3808 69.2067 12.9062 75.4422C13.6597 77.3582 14.5605 79.2131 15.6004 80.99C17.3671 84.1016 19.4696 87.0101 21.8703 89.6634C22.3266 90.1697 22.4047 90.4604 21.9078 91.0292C19.0292 94.3243 16.8152 98.1452 15.3879 102.281C14.9128 103.631 15.3254 104.682 16.4818 105.072C17.5758 105.444 18.5041 104.891 18.9823 103.535C20.2433 99.91 22.1669 96.5514 24.6551 93.6297C24.8177 93.4391 24.9896 93.2609 25.1771 93.0546C28.8701 96.5046 33.0827 99.3524 37.6605 101.494C51.3473 107.745 64.7558 107.276 77.8518 99.7308C78.7114 99.2338 79.3552 98.6243 79.1833 97.5429C79.0114 96.4615 78.1988 96.0489 77.1736 95.8488C67.1288 93.9086 57.6837 89.6251 49.6063 83.3467C47.6997 81.8745 47.2528 79.596 48.5343 77.8488C49.8157 76.1017 52.1599 75.736 53.9977 77.1394C57.6046 79.9283 61.5168 82.2981 65.6591 84.2031C71.5893 86.9371 77.9539 88.6076 84.4624 89.1383C88.138 89.4321 91.276 88.0819 93.5546 85.147C96.5533 81.2317 99.0648 76.9663 101.034 72.4448C101.772 70.7789 100.637 69.4005 98.7555 69.6881C95.0893 70.2522 91.3806 70.4928 87.6723 70.4069C81.7147 70.2684 75.8048 69.3082 70.1099 67.5533C69.3228 67.3336 68.653 66.8145 68.2441 66.107C67.8351 65.3995 67.7195 64.56 67.922 63.7683C68.3783 62.1211 70.0755 61.1928 71.8414 61.7242C75.049 62.7053 78.3328 63.4173 81.6587 63.8527C87.1003 64.5434 92.545 64.5934 97.9397 63.5745C102.315 62.7462 105.66 59.055 106.279 54.6604C106.821 50.9245 107.072 47.1521 107.029 43.3773Z" fill="white" stroke="white" stroke-width="14.0649" stroke-miterlimit="10"/>
<path d="M103.909 55.3885C103.34 59.4517 100.218 62.7773 96.3171 63.5149C91.5882 64.4119 86.5373 64.4963 80.877 63.7775C77.7181 63.3665 74.5993 62.6911 71.5535 61.7583C71.0993 61.6134 70.6206 61.5614 70.1459 61.6054C69.6712 61.6494 69.2102 61.7886 68.7905 62.0146C68.4005 62.229 68.0575 62.5196 67.7821 62.8691C67.5066 63.2187 67.3043 63.62 67.1871 64.0494C66.9561 64.9315 67.0818 65.8692 67.5368 66.6594C67.9919 67.4497 68.7398 68.029 69.6188 68.272C75.1165 69.9594 80.8194 70.8858 86.5686 71.0256C90.1482 71.1047 93.7279 70.8725 97.2673 70.3317C97.9737 70.2223 98.5581 70.3973 98.8769 70.8099C99.0195 71.0293 99.0997 71.2834 99.1091 71.5449C99.1184 71.8064 99.0566 72.0655 98.9301 72.2945C97.0649 76.5999 94.6801 80.661 91.8289 84.3872C90.8823 85.6604 89.6204 86.6652 88.1676 87.3026C86.7147 87.9399 85.1209 88.188 83.543 88.0223C77.3673 87.512 71.3283 85.9253 65.6993 83.3339C61.7642 81.5255 58.0488 79.273 54.6255 76.6203C54.178 76.2655 53.664 76.0039 53.1138 75.851C52.5636 75.698 51.9883 75.6567 51.4219 75.7295C50.8796 75.8114 50.3593 76.0017 49.8922 76.289C49.425 76.5763 49.0204 76.9547 48.7026 77.4017C47.3274 79.277 47.7994 81.7774 49.8278 83.3402C57.6286 89.3883 66.7419 93.5178 76.4324 95.3954C77.442 95.5923 77.8608 95.9236 77.9702 96.6144C78.0796 97.3051 77.7827 97.7115 76.9294 98.2022C64.7054 105.247 51.9063 105.807 38.8853 99.8681C34.744 97.9927 30.8714 95.3642 27.0551 91.8761L26.6957 91.5635L26.1987 92.1074C26.08 92.2386 25.9675 92.3574 25.8581 92.4855C23.4391 95.331 21.5668 98.5989 20.3352 102.125C20.0821 102.85 19.5663 103.641 18.5568 103.3C18.3917 103.254 18.2376 103.175 18.1043 103.068C17.971 102.96 17.8611 102.827 17.7817 102.675C17.693 102.447 17.6501 102.205 17.6554 101.961C17.6608 101.717 17.7143 101.476 17.8129 101.253C19.1616 97.3488 21.2488 93.741 23.9609 90.6259C24.6672 89.8257 24.4547 89.2662 23.9234 88.6724C20.3321 84.7043 17.4566 80.1432 15.425 75.1919C14.9906 74.123 15.0843 73.701 15.9657 73.0447C17.1597 72.9009 17.4472 73.0884 17.9129 74.2136C21.3002 82.4793 27.1254 89.5169 34.6127 94.389C44.3706 100.824 54.7412 102.769 65.4337 100.177C67.5034 99.6726 69.517 98.9606 71.4441 98.0521L71.9567 97.8083L71.6441 97.3364C71.5598 97.2109 71.4505 97.1042 71.323 97.023C71.1956 96.9418 71.0527 96.8878 70.9034 96.8644H70.8346C67.3612 95.8867 63.9717 94.6325 60.6985 93.1138C56.1886 91.0057 51.9325 88.3927 48.0119 85.3249C45.6927 83.509 44.8145 81.1805 45.4083 78.4018C45.6294 77.3016 46.1249 76.2752 46.849 75.4178C47.573 74.5604 48.502 73.9 49.5497 73.4979C50.6133 73.09 51.762 72.9544 52.8914 73.1034C54.0207 73.2524 55.095 73.6813 56.0164 74.3511C56.3936 74.6199 56.7697 74.8908 57.1447 75.1638C58.4262 76.1015 59.7483 77.0391 61.1298 77.8924C67.756 81.9401 75.1973 84.4678 82.9179 85.2937C86.1154 85.6468 88.5439 84.556 90.3286 81.9618C91.8007 79.8302 92.9259 78.0643 93.8667 76.4046C94.148 75.9077 94.4074 75.4076 94.6825 74.8762C94.8106 74.6262 94.9419 74.3761 95.0794 74.1167L95.4857 73.3479L91.9257 73.5791C84.0664 74.0787 76.1822 73.1251 68.6686 70.7662C65.6837 69.8285 63.8334 66.6561 64.5398 63.6712C64.7184 62.8495 65.0646 62.0734 65.5567 61.3915C66.0487 60.7096 66.6761 60.1365 67.3996 59.708C68.1583 59.287 68.9956 59.027 69.8593 58.9441C70.7229 58.8613 71.5944 58.9575 72.4192 59.2267C79.4695 61.368 86.8857 62.032 94.2043 61.177C97.8768 60.7519 100.293 58.9172 101.009 56.0105C101.687 53.2569 101.806 50.4189 101.918 47.6715L101.965 46.5526L101.624 46.4338C101.452 46.3769 101.269 46.3558 101.088 46.3719C100.907 46.388 100.731 46.441 100.571 46.5276C100.53 46.5276 100.49 46.5651 100.449 46.5776C95.157 48.4998 89.6402 49.7351 84.0338 50.2532C81.2208 50.5158 78.3922 48.3341 78.0952 45.6806C78.0091 44.953 78.0684 44.2156 78.2696 43.5111C78.4708 42.8066 78.8099 42.1491 79.2673 41.5767C79.7061 41.0401 80.2469 40.5959 80.8585 40.2697C81.4701 39.9435 82.1404 39.7418 82.8304 39.6764C86.848 39.2908 90.8141 38.4852 94.6637 37.2729C98.4144 36.0601 100.446 32.6502 99.5833 28.9777C98.8707 25.9553 97.6049 23.0391 96.4797 20.5387C96.2756 20.1335 95.9194 19.8256 95.4889 19.6823C92.573 18.3484 89.5517 17.2581 86.456 16.4224C84.7277 15.9357 82.879 16.1248 81.285 16.9514C79.691 17.778 78.4713 19.1801 77.8733 20.8731C77.3826 22.1921 76.9357 23.6643 76.4262 25.5115C75.7136 28.1713 75.3291 30.9218 74.9634 33.5785C74.9009 34.0098 74.8415 34.4442 74.779 34.8756C74.6482 35.6201 74.3601 36.3281 73.9339 36.9524C73.5076 37.5767 72.9531 38.1028 72.3072 38.4957C71.6614 38.8886 70.9392 39.1391 70.1889 39.2306C69.4385 39.3221 68.6773 39.2525 67.956 39.0263C65.2618 38.0886 63.9647 35.8351 64.3022 32.6971C64.8983 26.9151 66.2648 21.2389 68.3654 15.8192C68.381 15.7816 68.3998 15.7441 68.4217 15.7035C68.525 15.5521 68.5864 15.376 68.5995 15.1932C68.6127 15.0104 68.5772 14.8274 68.4967 14.6627L68.3654 14.4127H68.0841C64.2585 14.2845 61.6768 15.9098 60.1859 19.3666C56.7128 27.2741 55.203 35.904 55.7851 44.521C55.8039 44.7491 55.8226 44.9804 55.8414 45.2055C55.9491 46.0867 55.9491 46.9778 55.8414 47.8591C55.5993 49.2795 54.8637 50.569 53.7642 51.5004C52.6648 52.4318 51.2719 52.9453 49.831 52.9506H49.8091C46.8242 52.9506 44.2206 50.6627 43.8862 47.7716C43.6924 46.1244 43.5736 44.396 43.5174 42.6394C43.296 35.2212 44.3533 27.8202 46.6429 20.7606C46.6543 20.7265 46.6679 20.693 46.6835 20.6606C46.786 20.4819 46.8303 20.2757 46.8101 20.0706C46.79 19.8656 46.7064 19.672 46.571 19.5167L46.3366 19.2385L46.0053 19.3854C43.8924 20.3231 41.7077 21.2763 39.7042 22.5734C38.279 23.4923 37.2763 24.9389 36.9162 26.596C35.6021 32.2489 35.2565 38.0837 35.8942 43.8521C36.4113 48.4782 37.5357 53.016 39.2385 57.3482C39.6995 58.4185 39.8688 59.5918 39.7292 60.7488C39.2385 64.0775 36.8443 66.4404 33.625 66.778C30.5245 67.0905 27.7396 65.3058 26.5301 62.2022C24.0816 55.9764 22.6058 49.411 22.1543 42.7363C22.1168 42.13 22.073 41.5236 22.023 40.861L21.8449 38.3762L21.0541 39.6264C17.3878 45.4024 15.4281 51.3815 15.0562 57.9045C14.9906 59.061 14.7436 59.3704 13.656 59.5799C13.0308 59.7049 12.4057 58.7953 12.237 58.3109C11.8744 57.267 12.1651 56.123 12.4151 55.0822C13.0402 52.4817 13.5341 49.8313 14.3842 47.2965C15.846 43.0498 17.9671 39.0596 20.6697 35.4726C21.1823 34.7808 21.7126 34.1025 22.2606 33.4378C23.0607 32.4658 23.7139 32.7408 23.9296 32.8315C24.5547 33.0971 24.836 33.5722 24.7891 34.3192C24.2084 43.5638 25.6814 52.8223 29.1024 61.4302C29.3589 62.1267 29.7994 62.7408 30.3769 63.2071C30.9544 63.6735 31.6474 63.9748 32.3824 64.079C33.1173 64.1831 33.8668 64.0863 34.5511 63.7988C35.2355 63.5113 35.8292 63.0438 36.2692 62.446C36.703 61.8359 36.973 61.1247 37.0535 60.3805C37.1339 59.6363 37.0221 58.8839 36.7287 58.1952C32.7255 48.0919 31.8479 37.0194 34.2095 26.4116C34.4774 25.0313 35.0469 23.7271 35.8774 22.5925C36.7078 21.4578 37.7787 20.5207 39.0135 19.848C41.976 18.1896 45.0691 16.7764 48.2619 15.6222L48.4245 15.5629C49.384 15.2097 49.956 15.0409 50.5436 15.6191C51.1312 16.1973 50.9593 16.7943 50.578 17.757L50.4967 17.957C46.8395 27.206 45.4723 37.202 46.5116 47.0933C46.5519 47.572 46.6874 48.0378 46.9101 48.4635C47.1328 48.8891 47.4384 49.2659 47.8087 49.5719C48.1502 49.8455 48.5428 50.0483 48.9635 50.1685C49.3842 50.2887 49.8247 50.3239 50.2592 50.272C52.1001 50.0657 53.3847 48.4185 53.2566 46.4432C53.2347 46.115 53.2097 45.7837 53.1847 45.4555C53.1597 45.1274 53.1253 44.721 53.1034 44.3553C52.4813 35.0438 54.249 25.7277 58.2387 17.2913C59.3164 15.0716 61.1931 13.3412 63.4927 12.4467C65.0148 11.8216 66.6557 11.6684 68.2841 11.6434C69.9876 11.6184 73.2569 11.2434 72.0129 14.0251L71.991 14.0782C69.2623 20.1911 67.554 26.7098 66.9339 33.3753C66.8302 34.0178 66.94 34.6765 67.2465 35.2506C67.8466 36.2446 69.0718 36.8134 70.0907 36.5665C71.3409 36.2539 72.1348 35.2538 72.2786 33.791C72.7055 29.0885 73.7382 24.4609 75.351 20.023C77.0294 15.4003 81.4739 12.7842 86.1622 13.6625C90.4755 14.4689 94.5043 16.2505 97.8768 17.8883C98.2175 18.0508 98.3925 18.3821 98.6081 18.8259C99.89 21.5432 100.984 24.3451 101.884 27.2118C103.65 32.7627 100.89 38.0824 95.3201 39.8577C91.4168 41.0781 87.3997 41.8991 83.3305 42.3081C81.6083 42.4956 80.605 43.6521 80.7738 45.2618C80.9238 46.7339 82.296 47.7247 83.9681 47.5684C90.2418 46.9922 96.3901 45.4585 102.199 43.0207C102.759 42.7832 103.531 42.5707 104.015 42.8895C104.5 43.2083 104.64 44.0365 104.64 44.6648C104.677 48.253 104.433 51.8385 103.909 55.3885Z" fill="#030302"/>
<path d="M15.8191 72.6318C15.5347 71.1628 14.8815 69.7814 14.7564 68.2748C15.8566 67.6497 16.2692 66.9715 16.0817 66.087C15.8941 65.2024 15.1753 64.693 13.9688 64.6336C13.8854 63.1333 13.8021 61.632 13.7188 60.1297C15.0752 59.8765 15.4972 59.3889 15.5753 57.9918C15.9316 51.5032 17.9132 45.5647 21.4857 39.9387C21.5639 41.0108 21.6326 41.914 21.692 42.8142C22.1394 49.5401 23.626 56.1562 26.099 62.427C27.3836 65.7244 30.3841 67.656 33.6972 67.3091C37.1353 66.9527 39.7108 64.4148 40.2327 60.8704C40.3837 59.6281 40.2048 58.3679 39.7139 57.2167C38.0224 52.926 36.9083 48.4297 36.4008 43.8456C35.7642 38.1328 36.1056 32.3533 37.4104 26.7552C37.5741 25.9943 37.8865 25.2733 38.3295 24.6334C38.7726 23.9936 39.3375 23.4475 39.992 23.0264C41.9518 21.7762 44.0896 20.8166 46.2212 19.879C46.4838 20.1915 46.2775 20.4228 46.1994 20.6604C43.8964 27.7749 42.839 35.2336 43.0738 42.7079C43.127 44.4332 43.2457 46.1648 43.4458 47.8807C43.8083 51.025 46.6557 53.4754 49.85 53.4879C51.4115 53.4904 52.9233 52.939 54.1166 51.9318C55.3098 50.9245 56.1071 49.5267 56.3668 47.987C56.5543 46.8274 56.3855 45.6866 56.3074 44.5489C55.7041 35.8786 57.2232 27.5991 60.6644 19.6258C62.1084 16.2815 64.5682 14.8469 68.1032 14.9625C68.2563 15.2563 68.0344 15.4876 67.9469 15.7126C65.8269 21.1723 64.4508 26.8922 63.8556 32.7187C63.4961 36.0724 64.9339 38.5416 67.8312 39.5574C71.0255 40.6763 74.8168 38.4291 75.3013 35.016C75.742 31.8904 76.1139 28.7649 76.9328 25.7112C77.3516 24.1485 77.8048 22.6201 78.3674 21.1167C78.9209 19.5393 80.0553 18.2324 81.5393 17.4628C83.0233 16.6932 84.745 16.5189 86.3532 16.9754C89.4242 17.8043 92.4206 18.8884 95.311 20.2165C95.6326 20.3185 95.901 20.5431 96.058 20.8416C97.2832 23.5484 98.449 26.2895 99.1304 29.1837C99.9399 32.6218 97.9896 35.788 94.5359 36.9007C90.7169 38.1001 86.7837 38.8993 82.7995 39.2855C79.5083 39.6324 77.3016 42.4704 77.6611 45.8178C77.9736 48.7715 81.021 51.1125 84.1153 50.8187C89.765 50.299 95.3248 49.0574 100.659 47.1243C100.909 47.0337 101.146 46.8555 101.509 46.9837C101.378 49.9873 101.309 53.0285 100.571 55.979C99.8899 58.7482 97.5176 60.3954 94.1827 60.7829C86.9292 61.6377 79.5774 60.9789 72.5914 58.8482C68.6814 57.6668 65.0151 59.7859 64.0993 63.6459C63.7473 65.2511 64.0101 66.9299 64.8359 68.3506C65.6618 69.7714 66.9905 70.8307 68.5595 71.3191C76.1324 73.6971 84.0805 74.6509 92.0011 74.1321L94.6921 73.9602C94.2608 74.7728 93.8951 75.523 93.4857 76.2325C92.4074 78.1328 91.2134 79.955 89.9726 81.7553C88.2723 84.2151 86.0063 85.1934 83.0151 84.8809C75.3638 84.0681 67.9894 81.5623 61.427 77.5452C59.6611 76.47 58.0202 75.2229 56.3418 74.0227C55.3654 73.3014 54.223 72.8377 53.0202 72.6741C51.8173 72.5106 50.5927 72.6526 49.4592 73.087C48.3256 73.5214 47.3198 74.2342 46.5343 75.1598C45.7488 76.0853 45.2091 77.1938 44.9648 78.3828C44.324 81.3802 45.318 83.8932 47.7434 85.7872C51.688 88.8678 55.9705 91.4893 60.5081 93.6011C63.8041 95.1312 67.2177 96.3939 70.7161 97.3768C70.8227 97.3831 70.9267 97.4126 71.0206 97.4634C71.1146 97.5141 71.1963 97.5848 71.26 97.6705C69.3645 98.5683 67.3819 99.269 65.3433 99.7616C54.3414 102.431 44.2209 100.183 34.9068 94.0418C27.4955 89.2285 21.732 82.2654 18.3883 74.0852C17.8195 72.7131 17.3131 72.4443 15.8191 72.6318Z" fill="#80C098" stroke="#80C098" stroke-width="1.25022" stroke-miterlimit="10"/>
</svg>
