<svg width="36" height="36" viewBox="0 0 36 36" fill="none" xmlns="http://www.w3.org/2000/svg">
<path fill-rule="evenodd" clip-rule="evenodd" d="M31.8077 5.08057C32.3461 5.14994 32.8379 5.45824 33.1153 5.9458C33.4345 6.49534 33.4321 7.17237 33.1056 7.72607C28.2658 15.3441 19.3956 31.0317 19.3956 31.0317L19.3946 31.0327C19.0164 31.6718 18.2925 32.0185 17.5567 31.9009C16.8132 31.783 16.2392 31.2307 16.1017 30.4897L13.5841 17.1157L3.254 8.20752C3.10426 8.07536 2.98029 7.92545 2.88291 7.76611L2.879 7.75928L2.78916 7.57959C2.60999 7.16406 2.59773 6.6887 2.76279 6.24854C3.02474 5.55306 3.68085 5.08552 4.43662 5.08545L31.5743 5.06592L31.8077 5.08057ZM16.6026 17.0757L18.4356 26.814L28.0001 10.5767L16.6026 17.0757ZM15.1358 14.52L26.5108 8.02978H7.61631L15.1358 14.52Z" fill="#333333"/>
</svg>
