<svg width="72" height="72" viewBox="0 0 72 72" fill="none" xmlns="http://www.w3.org/2000/svg">
<path d="M63 20.25C63 17.2663 61.8147 14.4048 59.705 12.295C57.5952 10.1853 54.7337 9 51.75 9H20.25C17.2663 9 14.4048 10.1853 12.295 12.295C10.1853 14.4048 9 17.2663 9 20.25V51.75C9 54.7337 10.1853 57.5952 12.295 59.705C14.4048 61.8147 17.2663 63 20.25 63H51.75C54.7337 63 57.5952 61.8147 59.705 59.705C61.8147 57.5952 63 54.7337 63 51.75V20.25Z" fill="#B6DEFF" fill-opacity="0.8"/>
<path d="M23.616 40.4865C24.5093 40.4865 25.366 40.1316 25.9977 39.5C26.6294 38.8683 26.9842 38.0116 26.9842 37.1182C26.9842 36.2249 26.6294 35.3682 25.9977 34.7365C25.366 34.1049 24.5093 33.75 23.616 33.75C22.7227 33.75 21.866 34.1049 21.2343 34.7365C20.6026 35.3682 20.2477 36.2249 20.2477 37.1182C20.2477 38.0116 20.6026 38.8683 21.2343 39.5C21.866 40.1316 22.7227 40.4865 23.616 40.4865ZM26.9865 48.3705C26.9865 49.2638 26.6316 50.1205 26 50.7522C25.3683 51.3839 24.5116 51.7388 23.6182 51.7388C22.7249 51.7388 21.8682 51.3839 21.2365 50.7522C20.6049 50.1205 20.25 49.2638 20.25 48.3705C20.25 47.4772 20.6049 46.6205 21.2365 45.9888C21.8682 45.3571 22.7249 45.0023 23.6182 45.0023C24.5116 45.0023 25.3683 45.3571 26 45.9888C26.6316 46.6205 26.9865 47.4772 26.9865 48.3705ZM36 40.4865C36.8933 40.4865 37.75 40.1316 38.3817 39.5C39.0134 38.8683 39.3682 38.0116 39.3682 37.1182C39.3682 36.2249 39.0134 35.3682 38.3817 34.7365C37.75 34.1049 36.8933 33.75 36 33.75C35.1067 33.75 34.25 34.1049 33.6183 34.7365C32.9866 35.3682 32.6318 36.2249 32.6318 37.1182C32.6318 38.0116 32.9866 38.8683 33.6183 39.5C34.25 40.1316 35.1067 40.4865 36 40.4865ZM39.3705 48.3705C39.3705 49.2638 39.0156 50.1205 38.384 50.7522C37.7523 51.3839 36.8956 51.7388 36.0022 51.7388C35.1089 51.7388 34.2522 51.3839 33.6205 50.7522C32.9889 50.1205 32.634 49.2638 32.634 48.3705C32.634 47.4772 32.9889 46.6205 33.6205 45.9888C34.2522 45.3571 35.1089 45.0023 36.0022 45.0023C36.8956 45.0023 37.7523 45.3571 38.384 45.9888C39.0156 46.6205 39.3705 47.4772 39.3705 48.3705ZM48.3705 40.4865C49.2638 40.4865 50.1205 40.1316 50.7522 39.5C51.3839 38.8683 51.7388 38.0116 51.7388 37.1182C51.7388 36.2249 51.3839 35.3682 50.7522 34.7365C50.1205 34.1049 49.2638 33.75 48.3705 33.75C47.4772 33.75 46.6205 34.1049 45.9888 34.7365C45.3571 35.3682 45.0023 36.2249 45.0023 37.1182C45.0023 38.0116 45.3571 38.8683 45.9888 39.5C46.6205 40.1316 47.4772 40.4865 48.3705 40.4865ZM63 20.25C63 17.2663 61.8147 14.4048 59.705 12.295C57.5952 10.1853 54.7337 9 51.75 9H20.25C17.2663 9 14.4048 10.1853 12.295 12.295C10.1853 14.4048 9 17.2663 9 20.25V51.75C9 54.7337 10.1853 57.5952 12.295 59.705C14.4048 61.8147 17.2663 63 20.25 63H51.75C54.7337 63 57.5952 61.8147 59.705 59.705C61.8147 57.5952 63 54.7337 63 51.75V20.25ZM13.5 27H58.5V51.75C58.5 53.5402 57.7888 55.2571 56.523 56.523C55.2571 57.7888 53.5402 58.5 51.75 58.5H20.25C18.4598 58.5 16.7429 57.7888 15.477 56.523C14.2112 55.2571 13.5 53.5402 13.5 51.75V27ZM20.25 13.5H51.75C53.5402 13.5 55.2571 14.2112 56.523 15.477C57.7888 16.7429 58.5 18.4598 58.5 20.25V22.5H13.5V20.25C13.5 18.4598 14.2112 16.7429 15.477 15.477C16.7429 14.2112 18.4598 13.5 20.25 13.5Z" fill="#7E3D8E"/>
</svg>
