<svg width="72" height="72" viewBox="0 0 72 72" fill="none" xmlns="http://www.w3.org/2000/svg">
<path opacity="0.3" d="M63 18V54C63 54.5967 62.7629 55.169 62.341 55.591C61.919 56.013 61.3467 56.25 60.75 56.25H22.5L12.6984 64.7184C12.3707 64.9941 11.9711 65.1706 11.5466 65.227C11.1221 65.2835 10.6903 65.2176 10.3019 65.0372C9.91353 64.8567 9.58471 64.5692 9.3541 64.2083C9.12348 63.8474 9.00064 63.4283 9 63V18C9 17.4033 9.23705 16.831 9.65901 16.409C10.081 15.9871 10.6533 15.75 11.25 15.75H60.75C61.3467 15.75 61.919 15.9871 62.341 16.409C62.7629 16.831 63 17.4033 63 18Z" fill="#D4FFFA"/>
<path d="M60.7501 13.5H11.2501C10.0566 13.5 8.91201 13.9741 8.0681 14.818C7.22419 15.6619 6.75008 16.8065 6.75008 18V63C6.74489 63.8581 6.98764 64.6995 7.44916 65.4229C7.91067 66.1464 8.5713 66.7211 9.35164 67.0781C9.94629 67.355 10.5941 67.499 11.2501 67.5C12.3064 67.4972 13.3277 67.1206 14.1329 66.4369L14.1582 66.4172L23.3438 58.5H60.7501C61.9436 58.5 63.0881 58.0259 63.9321 57.182C64.776 56.3381 65.2501 55.1935 65.2501 54V18C65.2501 16.8065 64.776 15.6619 63.9321 14.818C63.0881 13.9741 61.9436 13.5 60.7501 13.5ZM60.7501 54H22.5001C21.9598 54.0003 21.4377 54.195 21.0291 54.5484L11.2501 63V18H60.7501V54Z" fill="#7E3D8E"/>
</svg>
