<svg width="72" height="72" viewBox="0 0 72 72" fill="none" xmlns="http://www.w3.org/2000/svg">
<path fill-rule="evenodd" clip-rule="evenodd" d="M11.637 11.637C9 14.271 9 18.516 9 27V45C9 53.484 9 57.729 11.637 60.363C13.563 62.289 16.347 62.808 21.012 62.949L47.988 62.994C54.522 62.958 58.056 62.67 60.363 60.363C63 57.729 63 53.484 63 45V23.484C63 22.26 63 21.645 62.772 21.096C62.544 20.547 62.112 20.109 61.242 19.242L52.758 10.758C51.888 9.888 51.456 9.456 50.907 9.228C50.352 9 49.74 9 48.513 9H27C18.516 9 14.271 9 11.637 11.637Z" fill="#FFD2B0" fill-opacity="0.8"/>
<path d="M49 63V57C49 51.342 49 48.516 47.242 46.758C45.484 45 42.658 45 37 45H34C28.342 45 25.516 45 23.758 46.758C22 48.516 22 51.342 22 57V63" stroke="#7E3D8E" stroke-width="4"/>
<path d="M22 24H37" stroke="#7E3D8E" stroke-width="4" stroke-linecap="round"/>
<path d="M27 11H48.5156C49.9038 11 50.0419 11.0358 50.1367 11.0752C50.235 11.116 50.3689 11.1936 51.3418 12.1699L59.8281 20.6562C60.8135 21.6416 60.8835 21.7617 60.9238 21.8594L60.9248 21.8633C60.9642 21.9581 61 22.0962 61 23.4844V45C61 49.2984 60.996 52.3217 60.6885 54.6084C60.3887 56.8377 59.8334 58.065 58.9492 58.9482L58.9482 58.9492C58.065 59.8334 56.8377 60.3887 54.6084 60.6885C52.3217 60.996 49.2984 61 45 61H27C22.7016 61 19.6783 60.996 17.3916 60.6885C15.1623 60.3887 13.935 59.8334 13.0518 58.9492L13.0508 58.9482L12.8887 58.7783C12.098 57.9076 11.5926 56.6985 11.3115 54.6084C11.004 52.3217 11 49.2984 11 45V27C11 22.7016 11.004 19.6783 11.3115 17.3916C11.6113 15.1623 12.1666 13.935 13.0508 13.0518L13.0518 13.0508C13.935 12.1666 15.1623 11.6113 17.3916 11.3115C19.6783 11.004 22.7016 11 27 11Z" stroke="#7E3D8E" stroke-width="4"/>
</svg>
